<?xml version="1.0" encoding="utf-8"?>
<!-- Generator: Adobe Illustrator 26.5.0, SVG Export Plug-In . SVG Version: 6.00 Build 0)  -->
<svg version="1.1" id="Layer_1" xmlns="http://www.w3.org/2000/svg" xmlns:xlink="http://www.w3.org/1999/xlink" x="0px" y="0px"
	 viewBox="0 0 512 512" style="enable-background:new 0 0 512 512;" xml:space="preserve">
<g id="XMLID_1_">
	<g id="XMLID_2546_">
		<g id="XMLID_2547_">
			<path id="XMLID_2548_" d="M390.09,242.99c-2.63,2.63-3.6,5.95-3.6,10.93v14.94c0,4.98,0.97,8.44,3.6,10.93
				c2.63,2.63,6.09,3.74,10.93,3.74h30.03h0.14c4.84,0,8.3-1.11,10.79-3.74c2.63-2.63,3.6-5.95,3.6-10.93v-14.94
				c0-4.98-0.97-8.44-3.6-10.93c-2.63-2.63-6.09-3.74-10.79-3.74h-0.14h-30.03h-0.14C396.18,239.26,392.72,240.36,390.09,242.99
				 M399.5,267.76v-13.15c0.14-1.94,0.97-2.91,3.04-3.04h26.98c1.94,0.14,2.91,1.11,3.04,3.04v13.56c-0.14,1.94-1.11,2.91-3.04,3.04
				h-26.98C400.61,271.08,399.64,269.7,399.5,267.76"/>
		</g>
		<g id="XMLID_2551_">
			<path id="XMLID_2552_" d="M292.12,239.26h-30.03c-4.84,0-8.44,1.11-10.93,3.74c-2.63,2.63-3.6,5.95-3.6,10.93v14.94
				c0,4.98,0.97,8.44,3.6,10.93c2.63,2.63,6.09,3.74,10.93,3.74h30.03h0.14c4.84,0,8.3-1.11,10.79-3.74
				c2.63-2.63,3.6-5.95,3.6-10.93v-14.94c0-4.98-0.97-8.44-3.6-10.93C300.56,240.36,297.1,239.26,292.12,239.26L292.12,239.26z
				 M260.7,267.49v-12.87c0.14-1.94,1.11-2.91,3.04-3.04h26.85c1.94,0.14,2.91,1.11,3.04,3.04v13.56c-0.14,1.94-1.11,2.91-3.04,3.04
				h-26.98C261.67,271.08,260.7,269.42,260.7,267.49"/>
			<path id="XMLID_2555_" d="M199.13,239.12L199.13,239.12h-3.6c-0.28,0-0.69,0-0.97,0h-0.83h-0.69c-3.74,0.28-6.64,1.25-8.86,3.6
				c-2.63,2.63-3.6,5.95-3.6,10.93v29.61h13.15v-12.32h31.14v-11.76h-31v-5.4c0-0.55,0.14-1.25,0.28-1.66
				c0.28-0.28,0.42-0.55,1.38-0.69h0.42h39.16v-12.32L199.13,239.12z"/>
		</g>
		<polygon id="XMLID_2556_" points="316.61,239.26 316.61,251.57 317.99,251.57 340.13,251.57 340.13,283.54 353.28,283.54 
			353.28,251.57 376.67,251.57 376.67,239.26 		"/>
		<g id="XMLID_2557_">
			<path id="XMLID_2558_" d="M457.62,239.26v44.28h13.15v-31.97h25.18h0.42c0.42,0,1.11,0.28,1.66,0.97
				c0.55,0.55,0.97,1.38,0.83,2.08v28.92H512v-29.61c0-4.98-0.97-8.44-3.6-10.93l-0.97,0.97l0.97-0.97c-2.21-2.21-5.4-3.32-9.41-3.6
				h-0.97c-0.28,0-0.55,0-0.83,0h-39.58V239.26z"/>
		</g>
	</g>
	<g id="XMLID_3_">
		<path id="XMLID_8_" d="M126.75,203.55c-13.42-13.42-31.97-21.73-52.45-21.73C33.21,181.83,0,215.04,0,256s33.21,74.17,74.17,74.17
			c20.48,0,39.02-8.3,52.45-21.73c13.42-13.42,21.73-31.97,21.73-52.45S140.18,216.98,126.75,203.55z M74.17,321.73
			c-9.13,0-17.71-1.8-25.6-5.12c-7.89-3.32-14.94-8.16-20.9-14.11c-5.95-5.95-10.79-13.01-14.11-20.9
			c-3.32-7.89-5.12-16.47-5.12-25.6s1.8-17.71,5.12-25.6c3.32-7.89,8.16-14.94,14.11-20.9c5.95-5.95,13.01-10.79,20.9-14.11
			s16.47-5.12,25.6-5.12s17.71,1.8,25.6,5.12c7.89,3.32,14.94,8.16,20.9,14.11c5.95,5.95,10.79,13.01,14.11,20.9
			c3.32,7.89,5.12,16.47,5.12,25.6c0,8.99-1.8,17.71-5.12,25.6c-3.32,7.89-8.16,14.94-14.11,20.9
			C108.77,314.4,92.44,321.73,74.17,321.73z"/>
		<path id="XMLID_22_" d="M99.91,227.63c0,0,0.28-0.28,0.55-0.97c0.28-0.55,0.55-1.38,0.55-2.21c0-0.55-0.14-1.25-0.42-1.8
			c-0.55-1.11-1.38-1.8-2.21-2.08c-0.69-0.28-1.38-0.42-1.38-0.42H75.42c-0.28,0-0.69,0.14-1.38,0.28
			c-0.69,0.14-1.52,0.42-2.35,0.97c-1.38,0.83-2.21,2.08-2.21,2.08l-29.34,40.27c0,0-0.28,0.42-0.55,0.97
			c-0.28,0.55-0.55,1.38-0.55,2.35c0,1.94,1.11,3.18,1.11,3.32l9.96,13.7c0,0,1.66,2.08,4.57,2.08c2.91,0,4.57-2.35,4.57-2.35
			L99.91,227.63z M100.05,224.45L100.05,224.45c0,0.69-0.28,1.38-0.42,1.8C99.77,225.7,100.05,225.14,100.05,224.45z"/>
		<path id="XMLID_23_" d="M40.13,256.97L40.13,256.97l21.31-29.75c0,0,0.55-0.97,0.55-2.49c0-0.69-0.14-1.52-0.55-2.21
			c-1.11-2.35-3.74-2.49-4.15-2.49c0,0,0,0-0.14,0H36.12l-0.14,0.14c-0.55,0-1.94,0.14-3.32,0.97c-1.38,0.83-2.21,2.08-2.21,2.08
			l-10.1,13.84c-0.14,0.14-0.97,1.25-0.97,2.91c0,1.8,1.38,3.46,1.38,3.6l9.82,13.56c0,0,1.8,2.08,4.84,2.08
			C38.19,259.18,40.13,256.97,40.13,256.97z"/>
		<path id="XMLID_24_" d="M116.93,221.82c0,0-0.28-0.42-0.83-0.83c-0.55-0.42-1.25-0.83-2.35-0.83c-2.49,0-3.6,1.8-3.74,1.8
			l-50.09,69.05c0,0-0.28,0.42-0.55,0.97c-0.28,0.55-0.55,1.38-0.55,2.49c0,1.94,1.11,3.18,1.25,3.46l9.41,12.87
			c0.14,0.14,1.52,2.35,4.84,2.35c2.77,0,4.43-2.21,4.43-2.21l49.12-67.53c0,0,0.14-0.42,0.42-0.97c0.28-0.69,0.42-1.52,0.42-2.49
			l0,0c0-1.8-0.42-2.63-0.55-2.63L116.93,221.82z"/>
	</g>
</g>
</svg>
