<svg enable-background="new 0 0 500 500" viewBox="0 0 500 500" xmlns="http://www.w3.org/2000/svg"><g fill="#fff"><g opacity=".61"><path d="m213.765 461.172-5.561 12.845h-2.936l-5.542-12.845h3.212l3.908 9.175 3.964-9.175z"/><path d="m223.507 469.741h-7.469c.275 1.23 1.321 1.982 2.826 1.982 1.046 0 1.798-.312 2.477-.954l1.523 1.651c-.917 1.046-2.294 1.597-4.074 1.597-3.413 0-5.634-2.147-5.634-5.083 0-2.954 2.257-5.083 5.267-5.083 2.899 0 5.138 1.945 5.138 5.12.001.22-.035.532-.054.77m-7.505-1.67h4.863c-.202-1.248-1.138-2.055-2.422-2.055-1.304 0-2.239.789-2.441 2.055"/><path d="m224.735 468.934c0-2.973 2.294-5.083 5.505-5.083 2.074 0 3.707.899 4.423 2.514l-2.22 1.193c-.532-.936-1.321-1.358-2.221-1.358-1.45 0-2.587 1.009-2.587 2.734s1.138 2.734 2.587 2.734c.899 0 1.688-.404 2.221-1.358l2.22 1.211c-.716 1.578-2.349 2.495-4.423 2.495-3.211.001-5.505-2.109-5.505-5.082"/><path d="m242.828 473.393c-.587.422-1.45.624-2.331.624-2.33 0-3.688-1.193-3.688-3.542v-4.055h-1.523v-2.202h1.523v-2.404h2.863v2.404h2.459v2.202h-2.459v4.019c0 .844.458 1.303 1.229 1.303.422 0 .844-.128 1.156-.367z"/><path d="m262.474 463.997v2.643c-.238-.018-.422-.037-.642-.037-1.578 0-2.624.862-2.624 2.753v4.661h-2.863v-9.873h2.734v1.303c.697-.954 1.872-1.45 3.395-1.45"/><path d="m263.299 472.53 1.009-2.239c1.083.789 2.697 1.339 4.239 1.339 1.762 0 2.477-.587 2.477-1.376 0-2.404-7.469-.752-7.469-5.524 0-2.184 1.762-4 5.413-4 1.615 0 3.267.385 4.459 1.138l-.918 2.257c-1.193-.679-2.422-1.009-3.56-1.009-1.761 0-2.44.66-2.44 1.468 0 2.367 7.468.734 7.468 5.45 0 2.147-1.78 3.982-5.45 3.982-2.035.001-4.09-.605-5.228-1.486"/><path d="m285.428 469.741h-7.469c.275 1.23 1.321 1.982 2.826 1.982 1.046 0 1.798-.312 2.477-.954l1.523 1.651c-.918 1.046-2.294 1.597-4.074 1.597-3.413 0-5.634-2.147-5.634-5.083 0-2.954 2.257-5.083 5.267-5.083 2.9 0 5.138 1.945 5.138 5.12.002.22-.035.532-.054.77m-7.505-1.67h4.863c-.202-1.248-1.138-2.055-2.422-2.055-1.303 0-2.239.789-2.441 2.055"/><path d="m297.007 469.741h-7.469c.275 1.23 1.321 1.982 2.826 1.982 1.046 0 1.798-.312 2.477-.954l1.523 1.651c-.918 1.046-2.294 1.597-4.074 1.597-3.413 0-5.634-2.147-5.634-5.083 0-2.954 2.257-5.083 5.267-5.083 2.899 0 5.138 1.945 5.138 5.12.001.22-.036.532-.054.77m-7.506-1.67h4.863c-.202-1.248-1.138-2.055-2.422-2.055-1.303 0-2.239.789-2.441 2.055"/><path d="m303.208 470.145-1.377 1.358v2.514h-2.862v-13.616h2.862v7.707l4.185-3.964h3.413l-4.111 4.184 4.478 5.689h-3.469z"/><path d="m256.601 475.359-2.86-2.86c-.435.508-.953.943-1.534 1.284-.092.069-.186.136-.283.199l3.027 3.027c.456.456 1.195.456 1.65 0 .456-.455.456-1.194 0-1.65"/><path d="m249.984 463.244c.221-.173.495-.281.797-.281.042 0 .083.002.124.006-.214-.156-.478-.249-.764-.249-.395 0-.744.18-.981.458-.051 0-.1.006-.151.008.039-.077.064-.162.064-.255 0-.234-.143-.434-.346-.519.087.126.138.279.138.445 0 .122-.031.237-.081.341-2.811.201-5.03 2.539-5.03 5.4 0 2.993 2.426 5.42 5.42 5.42 2.993 0 5.42-2.426 5.42-5.42.001-2.719-2.001-4.963-4.61-5.354m-2.001 1.412c.435 0 .844.112 1.199.309.374-.245.82-.387 1.299-.387.711 0 1.348.312 1.784.806-.435-.379-1.004-.61-1.627-.61-.449 0-.87.12-1.234.329-.079.046-.156.096-.229.15-.065-.048-.133-.093-.204-.134-.369-.219-.8-.344-1.26-.344-.3 0-.588.054-.854.152.339-.173.721-.271 1.126-.271m3.789 4.442c.115.305.181.634.181.979 0 1.534-1.244 2.777-2.778 2.777s-2.777-1.243-2.777-2.777c0-.345.066-.674.181-.979-.62-.382-1.035-1.064-1.035-1.846 0-1.197.971-2.168 2.168-2.168.565 0 1.078.218 1.463.572.386-.354.899-.572 1.464-.572 1.197 0 2.168.971 2.168 2.168-0 .782-.415 1.464-1.035 1.846"/><path d="m251.666 467.061c0 .497-.404.901-.901.901s-.901-.404-.901-.901.404-.901.901-.901c.101 0 .197.017.287.047-.03.062-.045.132-.045.204 0 .273.221.494.494.494.05 0 .099-.008.146-.022.013.058.019.117.019.178"/><path d="m248.255 467.061c0 .376-.305.681-.681.681s-.681-.305-.681-.681.305-.681.681-.681c.076 0 .149.013.217.035-.023.047-.034.1-.034.155 0 .206.167.374.374.374.038 0 .075-.006.11-.017.009.043.014.088.014.134"/><path d="m242.908 467.83h.616v.616h-.616z"/><path d="m254.827 467.83h.616v.616h-.616z"/><path d="m255.205 468.082h-.14c0-3.248-2.642-5.89-5.89-5.89s-5.89 2.642-5.89 5.89h-.14c0-1.611.627-3.125 1.766-4.264s2.653-1.766 4.264-1.766 3.125.627 4.264 1.766 1.766 2.653 1.766 4.264"/><path d="m248.868 461.814h.616v.616h-.616z"/><path d="m244.95 462.052h8.45v.14h-8.45z"/><path d="m245.174 462.15c0 .108-.088.196-.196.196s-.196-.088-.196-.196.088-.196.196-.196.196.088.196.196"/><path d="m253.596 462.15c0 .108-.088.196-.196.196s-.196-.088-.196-.196.088-.196.196-.196c.109 0 .196.088.196.196"/><path d="m314.356 473.409c0 1.559-2.364 1.559-2.364 0 .001-1.558 2.364-1.558 2.364 0z"/><path d="m161.739 466.549 1.772 6.088 1.855-6.088h2.215l-2.823 8.14h-2.33l-.837-2.396-.722-2.708-.722 2.708-.837 2.396h-2.33l-2.839-8.14h2.231l1.855 6.088 1.756-6.088z"/><path d="m176.713 466.549 1.772 6.088 1.855-6.088h2.215l-2.823 8.14h-2.33l-.837-2.396-.722-2.708-.722 2.708-.837 2.396h-2.33l-2.839-8.14h2.231l1.855 6.088 1.756-6.088z"/><path d="m191.687 466.549 1.772 6.088 1.855-6.088h2.215l-2.823 8.14h-2.33l-.837-2.396-.722-2.708-.722 2.708-.837 2.396h-2.33l-2.839-8.14h2.231l1.855 6.088 1.756-6.088z"/><path d="m200.908 473.52c0 1.559-2.364 1.559-2.364 0 .001-1.558 2.364-1.558 2.364 0z"/><path d="m322.71 473.409c-.935.919-1.919 1.28-3.117 1.28-2.346 0-4.3-1.411-4.3-4.282s1.953-4.284 4.3-4.284c1.149 0 2.035.329 2.921 1.199l-1.264 1.329c-.476-.428-1.066-.64-1.623-.64-1.346 0-2.33.985-2.33 2.396 0 1.542 1.05 2.362 2.297 2.362.64 0 1.28-.18 1.772-.672z"/><path d="m331.805 470.472c0 2.33-1.591 4.217-4.217 4.217s-4.201-1.887-4.201-4.217c0-2.314 1.609-4.217 4.185-4.217 2.577 0 4.233 1.903 4.233 4.217zm-6.416 0c0 1.231.739 2.38 2.199 2.38s2.199-1.149 2.199-2.38c0-1.215-.854-2.396-2.199-2.396-1.444.001-2.199 1.182-2.199 2.396z"/><path d="m338.572 474.689v-4.332c0-1.068-.559-2.035-1.658-2.035-1.082 0-1.722.967-1.722 2.035v4.332h-2.003v-8.107h1.855l.148.985c.426-.82 1.362-1.116 2.133-1.116.969 0 1.937.394 2.396 1.51.723-1.149 1.658-1.478 2.708-1.478 2.297 0 3.43 1.412 3.43 3.84v4.365h-2.003v-4.365c0-1.066-.442-1.97-1.526-1.97-1.082 0-1.756.935-1.756 2.003v4.332h-2.002z"/></g><g opacity=".61"><path d="m345.988 431.299c-.006-1.224-.959-2.121-2.189-2.14-.924-.014-.832.12-.834-.867-.003-1.097-.007-2.194.003-3.292.003-.379-.112-.691-.362-.976-2.342-2.668-4.678-5.342-7.019-8.011-.12-.137-.275-.244-.414-.366-6.214 0-12.427 0-18.641 0-.794.293-1.14.868-1.138 1.709.01 3.748.004 7.496.004 11.243 0 .556-.003.589-.55.551-1.497-.102-2.516.986-2.497 2.492.044 3.476.013 6.953.014 10.429.001 1.58.867 2.443 2.45 2.449.582.002.582.002.582.6 0 2.219-.001 4.438.001 6.657.001 1.192.58 1.771 1.768 1.771 8.013.001 16.027.001 24.04 0 1.168 0 1.755-.583 1.757-1.745.002-2.256 0-4.512.001-6.768 0-.512.002-.511.52-.515.271-.002.541.008.809-.058.996-.246 1.69-1.044 1.694-2.069.016-3.697.018-7.396.001-11.094zm-28.451-14.137h16.01c.548 0 .554.007.554.561.001 2.243-.001 4.486.001 6.73.001.811.249 1.059 1.06 1.059 1.91.001 3.821 0 5.731.001.458 0 .479.021.481.483.003.887.002 1.775 0 2.662-.001.477-.024.498-.504.499-3.895.001-7.79 0-11.684 0-3.882 0-7.765 0-11.647 0-.55 0-.552-.001-.552-.561-.001-3.624-.001-7.247 0-10.871 0-.559.004-.563.55-.563zm23.285 34.417c-3.883.001-7.766 0-11.65 0-3.871 0-7.742 0-11.613 0-.572 0-.574-.002-.574-.579-.001-1.997-.001-3.994.001-5.991 0-.464.023-.486.478-.487 7.803-.001 15.607-.001 23.41 0 .478 0 .499.02.499.503.002 1.997.001 3.994 0 5.991.002.558-.003.563-.551.563z"/><path d="m327.418 417.053h1.757v1.054h-1.757z"/><path d="m325.662 418.107h1.757v1.054h-1.757z"/><path d="m327.418 419.161h1.757v1.054h-1.757z"/><path d="m325.662 420.215h1.757v1.054h-1.757z"/><path d="m327.418 421.269h1.757v1.054h-1.757z"/><path d="m325.662 422.323h1.757v1.054h-1.757z"/><path d="m327.418 423.378h1.757v1.054h-1.757z"/><path d="m325.662 424.432h1.757v1.054h-1.757z"/><path d="m327.418 425.486h1.757v1.054h-1.757z"/><path d="m325.662 426.54h1.757v1.054h-1.757z"/><path d="m327.418 427.594h1.757v1.054h-1.757z"/><path d="m325.662 428.648h1.757v1.054h-1.757z"/><path d="m187.637 431.299c-.006-1.224-.959-2.121-2.189-2.14-.924-.014-.832.12-.834-.867-.003-1.097-.007-2.194.003-3.292.003-.379-.112-.691-.362-.976-2.342-2.668-4.678-5.342-7.019-8.011-.12-.137-.275-.244-.414-.366-6.214 0-12.427 0-18.641 0-.794.293-1.14.868-1.138 1.709.01 3.748.004 7.496.004 11.243 0 .556-.003.589-.55.551-1.497-.102-2.516.986-2.497 2.492.044 3.476.013 6.953.014 10.429.001 1.58.867 2.443 2.45 2.449.582.002.582.002.582.6 0 2.219-.001 4.438.001 6.657.001 1.192.58 1.771 1.768 1.771 8.013.001 16.027.001 24.04 0 1.168 0 1.755-.583 1.757-1.745.002-2.256 0-4.512.001-6.768 0-.512.002-.511.52-.515.271-.002.541.008.809-.058.996-.246 1.69-1.044 1.694-2.069.016-3.697.019-7.396.001-11.094zm-28.45-14.137h16.01c.548 0 .554.007.554.561.001 2.243-.001 4.486.001 6.73.001.811.249 1.059 1.06 1.059 1.91.001 3.821 0 5.731.001.458 0 .479.021.481.483.003.887.002 1.775 0 2.662-.001.477-.024.498-.504.499-3.895.001-7.79 0-11.684 0-3.882 0-7.765 0-11.647 0-.55 0-.552-.001-.552-.561-.001-3.624-.001-7.247 0-10.871-.001-.559.003-.563.55-.563zm23.285 34.417c-3.883.001-7.766 0-11.65 0-3.871 0-7.742 0-11.613 0-.572 0-.574-.002-.574-.579-.001-1.997-.001-3.994.001-5.991 0-.464.023-.486.478-.487 7.803-.001 15.607-.001 23.41 0 .478 0 .499.02.499.503.002 1.997.001 3.994 0 5.991.001.558-.004.563-.551.563z"/><path d="m159.779 440.669v-7.897h2.779c.375 0 .726.061 1.053.182s.612.292.855.513c.242.221.434.483.573.789.14.305.21.642.21 1.009 0 .375-.07.715-.21 1.02s-.331.568-.573.789c-.243.221-.528.392-.855.513s-.678.182-1.053.182h-1.29v2.901h-1.489zm2.801-4.313c.39 0 .684-.111.882-.331.199-.22.298-.474.298-.761 0-.14-.024-.276-.072-.408s-.121-.248-.221-.347c-.099-.099-.223-.178-.37-.237s-.32-.089-.518-.089h-1.312v2.173z"/><path d="m166.308 432.771h1.731l3.177 5.294h.088l-.088-1.522v-3.772h1.478v7.897h-1.566l-3.353-5.592h-.088l.088 1.522v4.07h-1.467z"/><path d="m177.922 436.334h3.872c.022.089.04.195.055.32.014.125.022.25.022.375 0 .507-.077.985-.231 1.434s-.397.849-.728 1.202c-.353.375-.776.666-1.268.871-.493.206-1.055.309-1.688.309-.574 0-1.114-.103-1.622-.309-.507-.206-.948-.492-1.323-.86-.375-.367-.673-.803-.894-1.307s-.331-1.053-.331-1.649c0-.595.11-1.145.331-1.649s.518-.939.894-1.307c.375-.367.816-.654 1.323-.86s1.048-.309 1.622-.309c.64 0 1.211.11 1.715.331s.935.526 1.296.915l-1.025 1.004c-.258-.272-.544-.48-.861-.623-.316-.143-.695-.215-1.136-.215-.361 0-.703.065-1.026.193-.324.129-.607.311-.85.546-.242.235-.436.52-.579.855s-.215.708-.215 1.119c0 .412.072.785.215 1.12s.338.62.584.855.531.418.855.546c.323.129.669.193 1.037.193.419 0 .773-.061 1.064-.182.29-.121.538-.278.744-.469.148-.132.275-.3.381-.502s.189-.428.248-.678h-2.482v-1.269z"/><path d="m224.019 431.299c-.006-1.224-.959-2.121-2.189-2.14-.924-.014-.832.12-.834-.867-.003-1.097-.007-2.194.003-3.292.003-.379-.112-.691-.362-.976-2.342-2.668-4.678-5.342-7.019-8.011-.12-.137-.275-.244-.414-.366-6.214 0-12.427 0-18.641 0-.794.293-1.14.868-1.138 1.709.01 3.748.004 7.496.004 11.243 0 .556-.003.589-.55.551-1.497-.102-2.516.986-2.497 2.492.044 3.476.013 6.953.014 10.429.001 1.58.867 2.443 2.45 2.449.582.002.582.002.582.6 0 2.219-.001 4.438.001 6.657.001 1.192.58 1.771 1.768 1.771 8.013.001 16.027.001 24.04 0 1.168 0 1.755-.583 1.757-1.745.002-2.256 0-4.512.001-6.768 0-.512.002-.511.52-.515.271-.002.541.008.809-.058.997-.246 1.69-1.044 1.694-2.069.016-3.697.018-7.396.001-11.094zm-28.451-14.137h16.01c.548 0 .554.007.554.561.001 2.243-.001 4.486.001 6.73.001.811.249 1.059 1.06 1.059 1.91.001 3.821 0 5.731.001.458 0 .479.021.481.483.003.887.002 1.775 0 2.662-.001.477-.024.498-.504.499-3.895.001-7.79 0-11.684 0-3.882 0-7.765 0-11.647 0-.55 0-.552-.001-.552-.561-.001-3.624-.001-7.247 0-10.871-0-.559.004-.563.55-.563zm23.286 34.417c-3.883.001-7.766 0-11.65 0-3.871 0-7.742 0-11.613 0-.572 0-.574-.002-.574-.579-.001-1.997-.001-3.994.001-5.991 0-.464.023-.486.478-.487 7.803-.001 15.607-.001 23.41 0 .478 0 .499.02.499.503.002 1.997.001 3.994 0 5.991.001.558-.004.563-.551.563z"/><path d="m205.111 432.771h1.699l2.967 7.897h-1.644l-.651-1.886h-3.044l-.651 1.886h-1.643zm1.886 4.644-.706-1.974-.287-.96h-.088l-.287.96-.706 1.974z"/><path d="m211.331 434.536c-.125 0-.245-.024-.359-.072s-.213-.114-.298-.199c-.084-.084-.151-.182-.198-.292-.048-.11-.072-.232-.072-.364s.024-.254.072-.364.114-.208.198-.292.184-.151.298-.198c.114-.048.233-.072.359-.072.257 0 .478.09.662.27.184.181.276.399.276.656s-.092.476-.276.656c-.184.181-.404.271-.662.271zm-.716 6.133v-5.404h1.445v5.404z"/><path d="m261.044 431.299c-.006-1.224-.959-2.121-2.189-2.14-.924-.014-.832.12-.834-.867-.003-1.097-.007-2.194.003-3.292.003-.379-.112-.691-.362-.976-2.342-2.668-4.678-5.342-7.019-8.011-.12-.137-.275-.244-.414-.366-6.214 0-12.427 0-18.641 0-.794.293-1.14.868-1.138 1.709.01 3.748.004 7.496.004 11.243 0 .556-.003.589-.55.551-1.497-.102-2.516.986-2.497 2.492.044 3.476.013 6.953.014 10.429.001 1.58.867 2.443 2.45 2.449.582.002.582.002.582.6 0 2.219-.001 4.438.001 6.657.001 1.192.58 1.771 1.768 1.771 8.013.001 16.027.001 24.04 0 1.168 0 1.755-.583 1.757-1.745.002-2.256 0-4.512.001-6.768 0-.512.002-.511.52-.515.271-.002.541.008.809-.058.996-.246 1.69-1.044 1.694-2.069.016-3.697.018-7.396.001-11.094zm-28.451-14.137h16.01c.548 0 .554.007.554.561.001 2.243-.001 4.486.001 6.73.001.811.249 1.059 1.06 1.059 1.91.001 3.821 0 5.731.001.458 0 .479.021.481.483.003.887.002 1.775 0 2.662-.001.477-.024.498-.504.499-3.895.001-7.79 0-11.684 0-3.882 0-7.765 0-11.647 0-.55 0-.552-.001-.552-.561-.001-3.624-.001-7.247 0-10.871-.001-.559.004-.563.55-.563zm23.285 34.417c-3.883.001-7.766 0-11.65 0-3.871 0-7.742 0-11.613 0-.572 0-.574-.002-.574-.579-.001-1.997-.001-3.994.001-5.991 0-.464.023-.486.478-.487 7.803-.001 15.607-.001 23.41 0 .478 0 .499.02.499.503.002 1.997.001 3.994 0 5.991.002.558-.003.563-.551.563z"/><path d="m236.361 440.845c-.338 0-.662-.048-.971-.143s-.592-.239-.849-.43-.481-.425-.673-.7c-.191-.276-.342-.597-.452-.965l1.401-.551c.103.397.283.726.54.987s.596.392 1.015.392c.154 0 .303-.02.447-.061.143-.04.272-.099.386-.176s.204-.175.27-.292c.066-.118.099-.254.099-.408 0-.147-.026-.279-.077-.397-.051-.117-.138-.227-.259-.331-.121-.103-.28-.202-.475-.298-.195-.095-.435-.195-.722-.298l-.485-.176c-.213-.073-.429-.173-.645-.298-.217-.125-.413-.276-.59-.452s-.322-.384-.436-.623-.171-.509-.171-.81c0-.309.06-.597.182-.866.121-.268.294-.503.518-.706.224-.202.492-.36.805-.474s.66-.171 1.042-.171c.397 0 .74.053 1.031.16s.537.243.739.408.366.348.491.546c.125.199.217.386.276.563l-1.312.551c-.074-.221-.208-.419-.402-.596-.195-.176-.462-.265-.8-.265-.324 0-.592.075-.805.226s-.32.348-.32.59c0 .235.103.436.309.601s.533.325.982.48l.497.165c.316.111.605.237.866.381.261.143.485.314.673.513.187.199.331.425.43.678.1.254.149.546.149.877 0 .412-.083.767-.248 1.064-.165.298-.377.542-.634.734-.258.191-.548.335-.872.43-.325.093-.641.141-.95.141z"/><path d="m239.516 432.771h1.61l1.633 4.754.287 1.015h.088l.309-1.015 1.699-4.754h1.61l-2.879 7.897h-1.566z"/><path d="m251.097 436.334h3.871c.022.089.04.195.055.32s.023.25.023.375c0 .507-.078.985-.232 1.434s-.397.849-.728 1.202c-.353.375-.775.666-1.268.871-.493.206-1.055.309-1.688.309-.574 0-1.114-.103-1.621-.309s-.949-.492-1.324-.86c-.375-.367-.673-.803-.894-1.307-.22-.504-.331-1.053-.331-1.649 0-.595.11-1.145.331-1.649s.518-.939.894-1.307c.375-.367.816-.654 1.324-.86.507-.206 1.047-.309 1.621-.309.64 0 1.211.11 1.715.331s.936.526 1.296.915l-1.026 1.004c-.257-.272-.544-.48-.861-.623-.316-.143-.694-.215-1.136-.215-.36 0-.702.065-1.026.193-.323.129-.607.311-.849.546-.243.235-.436.52-.579.855s-.215.708-.215 1.119c0 .412.072.785.215 1.12s.338.62.585.855c.246.235.531.418.854.546.324.129.669.193 1.037.193.419 0 .774-.061 1.064-.182s.539-.278.745-.469c.147-.132.274-.3.38-.502.107-.202.189-.428.248-.678h-2.482v-1.269z"/><path d="m297.3 431.299c-.006-1.224-.959-2.121-2.189-2.14-.924-.014-.832.12-.834-.867-.003-1.097-.007-2.194.003-3.292.003-.379-.112-.691-.362-.976-2.342-2.668-4.678-5.342-7.019-8.011-.12-.137-.275-.244-.414-.366-6.214 0-12.427 0-18.641 0-.794.293-1.14.868-1.138 1.709.01 3.748.004 7.496.004 11.243 0 .556-.003.589-.55.551-1.497-.102-2.516.986-2.497 2.492.044 3.476.013 6.953.014 10.429.001 1.58.867 2.443 2.45 2.449.582.002.582.002.582.6 0 2.219-.001 4.438.001 6.657.001 1.192.58 1.771 1.768 1.771 8.013.001 16.027.001 24.04 0 1.168 0 1.755-.583 1.757-1.745.002-2.256 0-4.512.001-6.768 0-.512.002-.511.52-.515.271-.002.541.008.809-.058.996-.246 1.69-1.044 1.694-2.069.016-3.697.019-7.396.001-11.094zm-28.45-14.137h16.01c.548 0 .554.007.554.561.001 2.243-.001 4.486.001 6.73.001.811.249 1.059 1.06 1.059 1.91.001 3.821 0 5.731.001.458 0 .479.021.481.483.003.887.002 1.775 0 2.662-.001.477-.024.498-.504.499-3.895.001-7.79 0-11.684 0-3.882 0-7.765 0-11.647 0-.55 0-.552-.001-.552-.561-.001-3.624-.001-7.247 0-10.871-.001-.559.003-.563.55-.563zm23.285 34.417c-3.883.001-7.766 0-11.65 0-3.871 0-7.742 0-11.613 0-.572 0-.574-.002-.574-.579-.001-1.997-.001-3.994.001-5.991 0-.464.023-.486.478-.487 7.803-.001 15.607-.001 23.41 0 .478 0 .499.02.499.503.001 1.997.001 3.994 0 5.991.001.558-.004.563-.551.563z"/><path d="m272.966 434.183v1.831h3.165v1.412h-3.165v1.831h3.518v1.412h-5.007v-7.897h5.007v1.412h-3.518z"/><path d="m277.852 440.669v-7.897h2.779c.375 0 .726.061 1.053.182s.612.292.855.513.434.483.574.789c.14.305.209.642.209 1.009 0 .375-.07.715-.209 1.02-.14.305-.331.568-.574.789s-.528.392-.855.513-.678.182-1.053.182h-1.29v2.901h-1.489zm2.801-4.313c.389 0 .684-.111.882-.331.199-.22.298-.474.298-.761 0-.14-.024-.276-.072-.408s-.121-.248-.221-.347c-.099-.099-.222-.178-.37-.237-.147-.059-.32-.089-.518-.089h-1.312v2.173z"/><path d="m286.797 440.845c-.338 0-.662-.048-.971-.143s-.592-.239-.849-.43-.482-.425-.673-.7c-.191-.276-.342-.597-.452-.965l1.401-.551c.103.397.283.726.541.987.257.261.595.392 1.015.392.154 0 .303-.02.447-.061.143-.04.272-.099.386-.176s.204-.175.27-.292c.066-.118.1-.254.1-.408 0-.147-.026-.279-.077-.397-.051-.117-.138-.227-.259-.331-.121-.103-.279-.202-.474-.298-.195-.095-.436-.195-.723-.298l-.485-.176c-.213-.073-.428-.173-.645-.298s-.414-.276-.59-.452-.322-.384-.436-.623-.171-.509-.171-.81c0-.309.061-.597.182-.866.121-.268.294-.503.518-.706.224-.202.493-.36.805-.474s.66-.171 1.042-.171c.397 0 .741.053 1.031.16s.537.243.739.408.365.348.491.546c.125.199.217.386.276.563l-1.312.551c-.074-.221-.208-.419-.403-.596-.195-.176-.462-.265-.799-.265-.324 0-.592.075-.805.226s-.32.348-.32.59c0 .235.103.436.309.601s.533.325.982.48l.496.165c.316.111.605.237.866.381.261.143.485.314.673.513.187.199.331.425.43.678.099.254.149.546.149.877 0 .412-.083.767-.248 1.064-.165.298-.377.542-.634.734-.258.191-.548.335-.872.43-.326.093-.643.141-.951.141z"/><path d="m321.394 439.168 4.004-4.985h-3.827v-1.412h5.559v1.5l-3.96 4.985h4.004v1.412h-5.779v-1.5z"/><path d="m328.409 432.771h1.489v7.897h-1.489z"/><path d="m331.486 440.669v-7.897h2.779c.375 0 .726.061 1.053.182s.612.292.855.513.434.483.574.789c.14.305.209.642.209 1.009 0 .375-.07.715-.209 1.02-.14.305-.331.568-.574.789s-.528.392-.855.513-.678.182-1.053.182h-1.29v2.901h-1.489zm2.802-4.313c.389 0 .684-.111.882-.331.199-.22.298-.474.298-.761 0-.14-.024-.276-.072-.408s-.121-.248-.221-.347c-.099-.099-.222-.178-.37-.237-.147-.059-.32-.089-.518-.089h-1.312v2.173z"/></g><path d="m300.133 433.27h9.067v2.242h-9.067zm0 3.866h9.067v2.243h-9.067z" opacity=".61"/><g opacity=".61"><path d="m156.756 478.878h1.607c1.263 0 2.114.812 2.114 1.974 0 1.161-.851 1.973-2.114 1.973h-1.607zm1.584 3.586c1.049 0 1.725-.665 1.725-1.612s-.677-1.613-1.725-1.613h-1.167v3.225z"/><path d="m165.139 480.851c0-1.15.879-2.007 2.075-2.007 1.184 0 2.069.851 2.069 2.007s-.885 2.007-2.069 2.007c-1.195 0-2.075-.856-2.075-2.007zm3.727 0c0-.942-.705-1.635-1.652-1.635-.953 0-1.663.693-1.663 1.635 0 .941.71 1.635 1.663 1.635.948 0 1.652-.693 1.652-1.635z"/><path d="m179.596 478.878-1.331 3.947h-.44l-1.156-3.366-1.161 3.366h-.434l-1.331-3.947h.429l1.139 3.394 1.178-3.394h.389l1.161 3.411 1.156-3.411z"/><path d="m187.731 478.878v3.947h-.344l-2.537-3.202v3.202h-.417v-3.947h.344l2.543 3.203v-3.203z"/><path d="m193.093 478.878h.417v3.586h2.21v.361h-2.627z"/><path d="m200.061 480.851c0-1.15.879-2.007 2.075-2.007 1.184 0 2.069.851 2.069 2.007s-.885 2.007-2.069 2.007c-1.195 0-2.075-.856-2.075-2.007zm3.727 0c0-.942-.705-1.635-1.652-1.635-.953 0-1.663.693-1.663 1.635 0 .941.71 1.635 1.663 1.635.947 0 1.652-.693 1.652-1.635z"/><path d="m211.636 481.77h-2.199l-.474 1.054h-.434l1.804-3.947h.412l1.804 3.947h-.44zm-.152-.338-.947-2.12-.947 2.12z"/><path d="m217.28 478.878h1.607c1.263 0 2.114.812 2.114 1.974 0 1.161-.851 1.973-2.114 1.973h-1.607zm1.584 3.586c1.049 0 1.725-.665 1.725-1.612s-.677-1.613-1.725-1.613h-1.167v3.225z"/><path d="m234.041 481.77h-2.199l-.474 1.054h-.434l1.804-3.947h.412l1.804 3.947h-.44zm-.152-.338-.947-2.12-.947 2.12z"/><path d="m239.685 478.878h.417v3.586h2.21v.361h-2.627z"/><path d="m247.082 478.878h.417v3.586h2.21v.361h-2.627z"/><path d="m260.449 479.239v1.551h2.041v.361h-2.041v1.675h-.417v-3.947h2.706v.361h-2.289z"/><path d="m267.678 478.878h.417v3.947h-.417z"/><path d="m273.456 478.878h.417v3.586h2.21v.361h-2.627z"/><path d="m283.644 482.464v.361h-2.791v-3.947h2.706v.361h-2.289v1.404h2.041v.355h-2.041v1.466z"/><path d="m294.672 479.239v1.551h2.041v.361h-2.041v1.675h-.417v-3.947h2.706v.361h-2.289z"/><path d="m301.5 480.851c0-1.15.879-2.007 2.075-2.007 1.184 0 2.069.851 2.069 2.007s-.885 2.007-2.069 2.007c-1.196 0-2.075-.856-2.075-2.007zm3.726 0c0-.942-.705-1.635-1.652-1.635-.953 0-1.663.693-1.663 1.635 0 .941.71 1.635 1.663 1.635.948 0 1.652-.693 1.652-1.635z"/><path d="m313.351 482.825-.902-1.269c-.102.011-.203.017-.316.017h-1.06v1.252h-.417v-3.947h1.477c1.004 0 1.613.507 1.613 1.353 0 .62-.327 1.054-.902 1.24l.964 1.353h-.457zm-.023-2.594c0-.632-.417-.992-1.207-.992h-1.048v1.979h1.048c.79 0 1.207-.367 1.207-.987z"/><path d="m322.907 478.878v3.947h-.4v-3.158l-1.551 2.656h-.197l-1.551-2.639v3.14h-.4v-3.947h.344l1.714 2.926 1.697-2.926h.344z"/><path d="m330.744 481.77h-2.199l-.473 1.054h-.434l1.804-3.947h.411l1.804 3.947h-.44zm-.152-.338-.947-2.12-.947 2.12z"/><path d="m336.957 479.239h-1.387v-.361h3.192v.361h-1.387v3.586h-.417v-3.586z"/><path d="m343.063 482.346.164-.321c.282.276.784.479 1.302.479.739 0 1.06-.31 1.06-.699 0-1.083-2.43-.417-2.43-1.877 0-.581.451-1.083 1.455-1.083.446 0 .908.13 1.224.35l-.141.333c-.338-.22-.733-.327-1.083-.327-.722 0-1.043.321-1.043.716 0 1.083 2.43.429 2.43 1.866 0 .581-.462 1.077-1.472 1.077-.592-.002-1.173-.21-1.466-.514z"/></g></g><path d="m447.125 314c-5.366 0-10.739-.154-16.097.059-3.12.124-5.326-.959-7.479-3.153-12.063-12.293-31.504-13.448-45.045-2.814-10.259 8.056-14.749 21.314-11.387 33.621 3.431 12.56 14.356 22.255 27.163 23.929 13.306 1.739 24.193-2.641 32.442-13.281 1.525-1.966 3.269-2.934 5.817-2.916 11.443.081 22.887.063 34.33.008 2.319-.011 4.132.615 5.398 2.67 1.324 2.149.675 4.045-.51 5.943-5.461 8.748-12.862 15.503-21.602 20.83-15.356 9.359-32.202 13.419-50.035 13.517-18.251.1-35.512-3.917-51.217-13.509-11.372-6.946-20.668-15.971-25.516-28.622-7.494-19.558-2.357-36.588 11.687-51.243 11.492-11.991 25.981-18.764 42.047-22.103 24.28-5.046 47.694-2.586 69.775 9.218 8.724 4.664 16.215 10.874 22.227 18.803 1.452 1.915 2.143 3.889 1.01 6.135-1.12 2.22-3.062 2.955-5.488 2.928-5.84-.064-11.68-.02-17.52-.02z" fill="#ec1c24"/><path d="m311.423 388.459c-4.025 0-8.05.025-12.075-.007-4.775-.037-8.48-2.121-11.149-6.04-1.419-2.085-2.782-4.209-4.119-6.348-2.827-4.522-6.858-6.724-12.216-6.719-15.39.014-30.78-.044-46.17-.089-.941-.003-1.907-.022-2.819-.226-2.278-.508-3.45-2.324-2.488-4.436 2.12-4.655 4.369-9.302 7.445-13.394 2.226-2.961 5.559-4.304 9.34-4.302 6.866.005 13.733.01 20.599-.013.939-.003 1.932-.008 2.806-.298 2.033-.673 2.564-2.643 1.212-4.869-2.044-3.368-4.234-6.648-6.369-9.96-3.118-4.837-6.231-9.677-9.368-14.501-2.68-4.121-5.433-4.09-8.08.124-13.418 21.358-26.841 42.712-40.205 64.103-2.986 4.779-7.104 7.097-12.764 7.005-7.496-.121-14.995-.023-22.493-.033-5.108-.007-6.354-2.227-3.732-6.689 14.335-24.392 28.68-48.778 43.023-73.166 4.994-8.491 9.992-16.98 14.985-25.472 2.573-4.377 6.354-6.628 11.471-6.617 8.997.018 17.995.011 26.992.003 4.997-.004 8.799 2.134 11.393 6.379 20.221 33.087 40.433 66.18 60.637 99.278.862 1.412 1.843 2.881.841 4.613-.985 1.704-2.7 1.68-4.385 1.677-4.104-.009-8.208-.002-12.312-.003z" fill="#ec1c24"/><path d="m155.089 317.832c0 11.838.011 23.677-.005 35.515-.006 4.524-.586 8.976-2.084 13.262-4.463 12.767-13.963 19.37-26.834 21.782-3.105.582-6.251.874-9.414.875-17.838.007-35.679.209-53.513-.067-12.555-.194-23.126-5.124-30.962-15.176-3.551-4.555-5.19-9.859-5.215-15.642-.019-4.42.042-8.841-.06-13.258-.034-1.458.388-1.889 1.847-1.878 8.761.067 17.523-.024 26.283.076 6.256.071 8.879 2.8 9.024 9.025.203 8.732 4.487 13.795 13.121 14.645 8.801.866 17.671.806 26.479.006 7.212-.655 10.908-4.747 11.572-12.065.178-1.961.175-3.942.174-5.914-.006-19.02-.038-38.041-.044-57.061-.003-10.732 3.616-14.33 14.375-14.339 7.656-.007 15.313.049 22.968-.041 1.676-.02 2.28.236 2.264 2.137-.103 12.705-.054 25.411-.054 38.117.026 0 .052.001.078.001z" fill="#ec1c24"/><path d="m209.545 248.387c-32.221-5.332-62.406-15.812-88.977-35.342-5.398-3.968-10.345-8.472-14.66-13.631 1.424-1.249 2.267-2.713 2.584-4.679.205-1.271 1.337-.365 2.064-.07 2.289 1.98 4.497 4.057 6.908 5.896 6.65 6.067 13.821 11.441 21.519 16.113 16.381 10.238 33.957 17.724 52.502 23.056 7.059 2.03 14.199 3.647 21.384 5.119 1.038.213 2.246.131 3.023 1.11 4.211 1.164 8.55 1.582 12.872 2.003 1.799.175 3.57.59 5.39.596.61.002 1.459.116 1.484.851.028.839-.753 1.091-1.524 1.132-3.08.164-6.132-.288-9.168-.622-4.515-.497-9.063-.78-13.531-1.682-.616-.122-1.259-.052-1.87.15z" fill="#3a3c40"/><path d="m138.555 216.999c-6.197-3.426-11.716-7.808-17.173-12.267-1.452-1.187-2.782-2.523-4.169-3.791-4.602-4.862-8.865-9.99-12.574-15.582-3.205-4.831-5.407-10.1-6.893-14.518.881 2.199 1.802 5.53 2.657 8.879.329 1.287.54 2.633-1.523 2.555-1.687-.904-2.188-2.801-3.479-4.074.304 1.229.691 2.445.873 3.699.203 1.392-.351 1.956-1.753 1.423-3.944-6.548-6.221-13.698-7.567-21.17-.291-1.618-.388-3.27-.574-4.907-.205-1.398-.165-2.787-.004-4.36 1.408.585 1.206 1.697 1.248 2.623.33 7.206 2.318 14.013 4.813 20.705-.375-.884-.806-1.801-.838-2.761-.257-7.632-2.332-15.093-2.036-22.786.203-5.285.746-10.518 1.59-15.73.212-1.31.569-2.636-.114-3.923.346-3.896 2.288-7.059 4.696-9.981.458-.556 1.227-.79 1.944-.408.955.508 1.182 1.433 1.112 2.424-.353 5.024-1.066 9.986-2.296 13.943 1.138-6.64 4.944-13.083 8.809-19.499.28-.646.627-1.25 1.121-1.759 3.041-3.448 5.669-7.225 8.537-10.812 3.197-4.129 7.189-7.447 11.087-10.862 2.547-2.231 5.355-4.12 8.07-6.128.744-.55 1.511-1.55 2.687-.72.031 1.257-1.007 1.713-1.795 2.309-8.612 6.518-16.265 13.991-22.477 22.85-6.826 9.735-12.182 20.15-13.406 32.19-1.012 9.961.246 19.669 4.15 28.965 4.859 11.569 11.78 21.745 20.719 30.535 3.945 3.879 8.397 7.156 12.823 10.46.806.604 2.078 1.014 1.735 2.478z" fill="#b3b5bc"/><path d="m58.692 426.443c-2.509 5.914-5.07 11.807-7.49 17.757-.594 1.461-1.303 1.994-2.919 1.974-1.564-.02-2.356-.42-2.966-1.922-2.449-6.03-5.049-11.999-8.017-17.946v5.459c0 4.259-.087 8.52.042 12.774.055 1.826-1.015 1.698-2.094 1.533-1.008-.155-2.702.94-2.69-1.409.043-8.122.032-16.245-.001-24.368-.005-1.125.361-1.624 1.501-1.453.154.023.315.006.473.004 5.16-.062 5.169-.066 7.188 4.694 2.116 4.989 4.212 9.985 6.507 15.43 1.449-3.33 2.743-6.278 4.015-9.235 1.337-3.109 2.71-6.204 3.95-9.351.486-1.233 1.159-1.582 2.463-1.574 5.195.031 5.195-.022 5.196 5.105 0 6.782-.097 13.566.056 20.345.051 2.277-1.264 1.78-2.542 1.86-1.413.089-2.323.024-2.281-1.899.129-5.909.047-11.822.047-17.734-.147-.016-.292-.03-.438-.044z" fill="#231f20"/><path d="m209.545 248.387c1.94-1.472 3.88-.062 5.783.094 6.126.502 12.206 1.531 18.371 1.6.603.007 1.248.079 1.778-.777-7.033-.594-13.855-1.366-20.953-2.784.708-.155 1.073-.236 1.439-.316 1.915-1.195 3.877-.123 5.745.066 4.452.452 8.886 1.104 13.357 1.412 1.21.488 2.485.201 3.728.307 7.384.54 14.766.637 22.148.002 1.333-.139 2.697.238 4.011-.231 12.251-1.063 24.353-3.003 36.279-6.046 12.792-3.265 25.161-7.723 37.258-12.975.792-.344 1.557-.782 2.453-.805 2.345.484 4.25-.859 6.248-1.638 2.407-.939 4.832-1.86 7.167-2.985.636-.306 1.31-.542 2.019-.615.549-.057 1.171-.099 1.463.474.306.601-.156 1.069-.563 1.404-1.637 1.351-3.426 2.49-5.271 3.531-1.981 1.117-3.923 2.305-5.977 3.292-.54.26-1.216.429-1.331 1.19-9.259 4.412-18.988 7.537-28.828 10.295-17.03 4.773-34.443 7.368-52.074 8.394-15.999.931-31.958.205-47.846-1.934-2.139-.287-4.27-.635-6.404-.955z" fill="#25272b"/><path d="m344.697 232.587c-1.347-.324-.244-.659.035-.83 3.538-2.172 7.12-4.274 10.623-6.501.8-.508 1.928-.785 2.244-2.055-1.457-.2-2.606.5-3.811.999-3.548 1.467-7.101 2.921-10.658 4.365-.683.277-1.381.413-1.857-.392.134-.966.996-1.126 1.667-1.463 6.995-3.517 13.864-7.257 20.437-11.52 6.352-4.109 12.35-8.686 18.035-13.675 3.996-3.75 8.292-7.182 11.878-11.365 2.291-2.671 4.956-5.023 6.831-8.047 1.659-2.454 3.697-4.634 5.104-7.279.736-1.383 1.512-2.735 2-4.233.281-.725.598-1.435 1.034-2.072.285-.417.568-1.057 1.221-.772.575.251.579.897.486 1.428-.159.912-.267 1.833-.456 2.741-.893 3.23-1.864 6.434-3.367 9.448-8.999 17.951-23.358 30.598-40.31 40.659-6.787 4.028-13.785 7.654-21.136 10.564z" fill="#161618"/><path d="m381.299 435.179c5.552-1.459 7.802-4.358 7.4-9.243-.355-4.278-2.781-6.552-8.347-6.874-5.898-.346-11.829-.147-17.746-.237-1.085-.019-1.326.445-1.326 1.407.024 8.205.014 16.415.014 24.62 0 .545-.019 1.033.725 1.26 3.032.924 4.595-.175 4.59-3.316 0-.313-.019-.63.005-.943.152-2.108-.933-4.974.455-6.111 1.293-1.056 4.06-.242 6.163-.407 1.36-.109 2.146.407 2.899 1.492 1.895 2.714 3.913 5.344 5.888 8.001.455.616.786 1.336 1.791 1.298 1.762-.071 3.525-.019 5.69-.019-2.871-3.826-5.458-7.27-8.201-10.928zm-13.643-4.202c-.696.024-1.028-.251-1.037-.938-.005-.237-.043-.478 0-.706.355-1.98-1.132-4.742.82-5.798 1.639-.895 4.15-.185 6.277-.185v.095c1.971 0 3.946-.118 5.903.028 2.601.194 3.799 1.426 3.804 3.61.009 2.331-1.341 3.411-3.496 3.662-4.08.484-8.183.095-12.271.232z" fill="#231f20"/><path d="m455.486 446.72c-3.671.015-7.235-.482-10.451-2.399-.869-.518-1.702-1.163-2.394-1.897-.895-.95-2.4-2.23-1.739-3.304.749-1.217 2.784-1.134 4.25-1.641.549-.19.714.443 1.005.796 3.231 3.912 11.49 5.25 15.818 2.566.89-.552 1.665-1.216 1.663-2.404-.002-1.317-.876-1.991-1.923-2.434-2.804-1.184-5.845-1.197-8.792-1.658-2.492-.39-4.988-.706-7.278-1.876-2.505-1.28-4.12-3.188-4.145-6.098-.026-3.058 1.397-5.429 4.202-6.548 6.215-2.479 12.454-2.295 18.561.512.631.29 1.205.756 1.723 1.23 1.109 1.014 2.64 2.317 2.202 3.643-.419 1.269-2.559 1.094-3.883 1.695-.797.362-.902-.321-1.211-.723-2.793-3.623-11.154-4.911-14.937-2.31-.834.573-1.378 1.288-1.286 2.355.098 1.132.951 1.617 1.847 1.922 3.382 1.152 6.966 1.24 10.447 1.879 1.786.328 3.547.687 5.223 1.412 2.757 1.192 4.547 3.129 4.638 6.242.091 3.092-1.226 5.508-3.942 7.038-2.974 1.676-6.252 2.036-9.598 2.002z" fill="#231f20"/><path d="m298.595 418.907c-3.245-.848-6.561-.966-9.868-.407-7.94 1.345-12.279 6.324-12.289 14.018-.009 7.438 4.415 12.521 12.18 13.914 1.312.232 2.667.251 4.003.365 1.829-.028 3.629-.218 5.41-.625 6.519-1.492 10.626-6.528 10.744-13.189.129-7.245-3.528-12.338-10.18-14.076zm4.416 16.921c-.161.521-.36 1.042-.616 1.53-2.392 4.586-10.195 6.334-15.827 3.562-4.358-2.151-6.163-8.063-3.937-12.9 1.568-3.401 5.107-5.225 10.091-5.202 8.124.035 12.567 5.653 10.289 13.01z" fill="#231f20"/><path d="m138.223 418.859c-3.174-.796-6.414-.91-9.636-.374-7.982 1.331-12.293 6.253-12.327 13.966-.028 7.565 4.453 12.687 12.327 14.018 1.236.208 2.511.218 3.482.298 1.317-.066 2.345-.062 3.363-.18 7.566-.843 12.606-5.699 13.122-12.597.579-7.674-3.282-13.364-10.331-15.131zm4.623 16.879c-.024.076-.038.152-.062.227-1.279 3.7-4.084 5.491-7.774 5.964-4.543.587-9.044.332-11.891-3.866-2.279-3.364-2.293-7.21-.265-10.768 2.08-3.638 5.694-4.425 8.669-4.477 9.031-.003 13.484 5.511 11.323 12.92z" fill="#231f20"/><path d="m394.444 106.016c7.618 8.449 13.35 17.977 16.556 28.95.149.53-.152.61-.572.574-1.154-1.148-1.666-2.602-1.982-4.15-1.1-3.917-3.085-7.408-5.208-10.833-.166-.268-.371-.517-.619-.713-.673-.531-1.351-1.376-2.239-1.087-1.078.351-.667 1.488-.637 2.283.097 2.556 1.112 4.904 1.831 7.318.18.604.486 1.169.59 1.796.081.487.071.975-.501 1.169-.429.145-.756-.102-1.029-.403-.431-.475-.69-1.054-.942-1.633-5.476-12.622-13.933-22.982-24.148-32.047-2.836-2.517-5.726-4.939-8.831-7.106-.187-.114-.363-.247-.533-.385-1.034-.937-2.126-1.785-3.48-2.226-5.229-3.208-10.339-6.62-15.875-9.303-3.54-1.716-7.008-3.577-10.635-5.118-1.216-.517-2.516-.945-3.456-1.971.372-1.538 1.417-.889 2.187-.567 6.405 2.673 12.668 5.648 18.771 8.961 6.315 3.429 12.348 7.298 18.213 11.441 1.357.959 2.966 1.376 4.582 1.842-1.864-2.368-4.443-3.811-6.79-5.548-1.275-.944-3.067-1.427-3.37-3.363.805-.713 1.26.082 1.817.425 6.856 4.227 13.149 9.114 18.803 14.908 2.33 2.386 4.689 4.869 7.497 6.786z" fill="#818489"/><path d="m212.594 418.843c4.342.001 8.687.11 13.024-.045 2.231-.079 1.638 1.339 1.67 2.478.031 1.118.422 2.368-1.637 2.22-2.827-.204-5.684.039-8.52-.088-1.545-.069-1.983.377-1.96 1.937.09 6.234-.053 12.473.091 18.706.046 1.981-.768 2.287-2.354 2.053-1.325-.195-3.212.889-3.129-1.983.175-6.073-.023-12.156.099-18.231.038-1.878-.29-2.667-2.384-2.495-2.588.213-5.222-.124-7.806.106-2.149.192-1.921-.989-1.994-2.385-.084-1.613.155-2.405 2.115-2.326 4.255.171 8.523.052 12.785.053z" fill="#242021"/><path d="m394.444 106.016c-.11.101-.306.299-.319.288-2.749-2.398-5.727-4.59-8.174-7.267-5.66-6.194-12.24-11.12-19.515-15.195-1.109.123-1.972-.49-2.847-1-18.725-10.919-38.893-18-59.999-22.59-11.658-2.535-23.467-4.061-35.34-5.043-9.439-.781-18.93-.938-28.372-.464-23.008 1.156-45.659 4.583-67.57 12.009-17.581 5.958-34.298 13.643-49.243 24.828-3.571 2.124-6.387 5.092-9.07 8.199-.619.717-1.147 1.54-1.946 2.048-4.354 2.771-7.382 6.81-10.445 10.822-1.237 1.316-1.371 1.351-1.903.504 8.962-12.731 20.593-22.527 33.846-30.465 20.182-12.088 42.056-19.755 65.028-24.442 17.2-3.51 34.613-5.168 52.142-5.035 35.042.265 68.875 6.446 100.77 21.554 9.272 4.392 18.127 9.478 26.31 15.692 6.08 4.618 11.483 9.959 16.647 15.557z" fill="#60656b"/><path d="m99.701 113.154c.982.544 1.076-.453 1.505-.868 1.644-1.294 2.814-3.167 4.876-3.956.803-.307 1.612-.823 2.433-.225.917.668.75 1.653.474 2.577-.568 1.903-1.695 3.5-2.793 5.124-.288.426-1.394.892-.32 1.653-.266 1.627-1.497 2.73-2.281 4.063-3.395 5.776-5.932 11.883-7.463 18.681-1.134-1.163-.186-2.089-.122-2.965.073-1.006.344-2.005.593-2.991.945-3.73 1.113-7.573 1.667-11.359.118-.804-.111-1.657-.956-1.963-.818-.296-1.298.458-1.727.978-2.128 2.58-3.54 5.533-4.402 8.756.186 1.061-.2 2.028-.532 2.99-1.573 4.562-2.676 9.222-3.045 14.044-.064.835-.089.833-1.052 2.144-.478-1.073-.349-2.029-.132-2.993 1.224-12.492 5.821-23.654 13.277-33.69z" fill="#8f9399"/><path d="m86.426 146.844c.065.761.129 1.523.194 2.284.622-6.401 1.939-12.592 4.566-18.468 1.773.79 1.032 2.33.827 3.476-1.094 6.114-1.799 12.253-1.723 18.471.055 4.477.428 8.925 1.357 13.311.824 3.891-.008 7.955 1.302 11.81-3.999-7.588-5.84-15.707-6.381-24.203-.063 1.24-.125 2.481-.188 3.721-.597-3.47-.662-6.938.046-10.402z" fill="#e8eaee"/><path d="m110.572 195.167c-.562-.193-1.124-.386-1.915-.658.487 2.53-.001 4.422-2.75 4.906-2.356-2.434-4.432-5.087-6.243-7.95.666-2.211-.729-4.595.564-6.754.745-.305 1.198.221 1.63.642 2.76 2.691 5.496 5.406 8.169 8.182.411.426.957.893.545 1.632z" fill="#4b4d51"/><path d="m100.652 184.777c-.773.879-.593 1.985-.282 2.85.541 1.504.263 2.694-.705 3.839-2.149-2.439-3.593-5.324-5.145-8.141 1-.133 1.686-.319 1.168-1.681-.546-1.436-.766-2.995-1.226-4.901 2.183 1.458 2.995 3.533 4.354 5.134 1.005.717 2.358 1.215 1.836 2.9z" fill="#73757a"/><path d="m410.514 135.451c.162-.162.324-.323.485-.485 1.391 3.125 1.846 6.498 2.272 9.818 1.588 12.378-1.015 24.078-6.156 35.307-.217.474-.353 1.075-.971 1.271.956-3.166 1.911-6.332 2.867-9.498 1.699-4.551 2.767-9.289 3.064-14.093.411-6.661.364-13.353-1.643-19.852-.246-.797-.571-1.668.082-2.468z" fill="#aeb0b5"/><path d="m332.888 70.978c10.567 4.475 20.701 9.76 30.219 16.193 1.07.837 2.269 1.497 3.304 2.383l.002.002c11.209 8.335 20.586 18.332 27.375 30.597 5.418 9.788 9.012 20.169 8.751 31.514-.263 11.425-3.721 21.967-9.311 31.899-4.606 8.185-10.406 15.395-17.095 21.935-3.844 3.758-8.371 6.663-12.537 10.019-6.778 4.628-13.89 8.665-21.374 12.041-.339.153-.634.405-.95.611-11.323 5.147-22.925 9.537-34.927 12.828-11.911 3.266-23.969 5.785-36.298 6.844-1.635.141-3.27.273-4.906.409-.673.211-1.341.368-2.056-.218 1.377-1.734 3.404-.563 4.973-1.186 15.492-1.683 30.599-5.141 45.338-10.156 13.091-4.454 25.754-9.896 37.625-17.065 1.555-.939 2.885-2.207 4.518-3.023 3.244-1.378 5.808-3.753 8.485-5.929 8.91-7.243 16.095-15.947 21.666-25.988 4.713-8.771 7.691-18.054 8.558-28.012 1.73-19.866-5.542-36.669-17.5-51.901-7.283-8.722-15.791-16.024-25.46-21.989-.874-.539-1.743-1.074-2.685-1.487-8.119-4.528-16.351-8.831-25.093-12.038-4.711-1.728-9.343-3.779-14.422-4.312-9.336-2.761-18.876-4.444-28.531-5.564-10.351-1.201-20.742-1.342-31.147-1.384-15.324-.063-30.558.766-45.63 3.761-4.883.971-9.644 2.39-14.461 3.59-6.509 1.021-12.502 3.618-18.502 6.164-5.939 2.52-11.659 5.501-17.335 8.563-4.372 2.051-8.306 4.813-12.198 7.624-8.304 5.998-15.497 13.123-21.329 21.562-6.622 9.582-11.218 19.987-13.078 31.586-2.844 17.731 1.178 33.948 10.489 49.015 6.779 10.969 15.787 19.779 26.66 26.692 17.509 11.509 36.783 18.896 56.857 24.451 4.787 1.325 9.663 2.233 14.474 3.433 1.431.375 2.907.473 4.361.709 1.533.014 2.995.492 4.501.681.853.328 1.749.284 2.639.296 1.595.147 3.155.528 4.75.676 1.204.437 2.482.034 3.691.324.557.133 1.457.16 1.241.977-.149.566-.933.291-1.456.203-6.433-.168-12.746-1.419-19.122-2.105-6.797-1.588-13.683-2.769-20.42-4.632-20.13-5.567-39.375-13.176-56.989-24.573-2.474-2.787-5.735-4.602-8.596-6.91-7.989-6.444-14.685-13.992-20.151-22.667-4.593-7.288-8.362-14.967-10.185-23.407-2.657-12.301-1.775-24.338 3.345-35.993 7.126-16.22 18.317-29.053 32.423-39.524.497-.369.913-.848 1.367-1.276.109-1.115 1.054-1.498 1.817-1.997 7.156-4.684 14.712-8.635 22.462-12.228.433-.159.867-.317 1.286-.515 1.306-.607 2.583-1.275 3.919-1.823 18.181-7.632 37.16-12.184 56.698-14.372 10.021-1.122 20.11-1.757 30.205-1.526 26.37.603 52.119 4.631 76.777 14.408 1.084.432 2.295.691 2.968 1.81z" fill="#f4f6fa"/><path d="m100.652 184.777c-.216-1.217-1.329-1.868-1.836-2.902 1.183.056 1.502-.356 1.14-1.573-1.096-3.685-2.078-7.405-3.079-11.118-.106-.393-.57-.83.165-1.396 1.183 2.911 2.326 5.773 3.506 8.62 2.921 7.052 7.478 13.031 12.302 18.849 1.522 1.835 3.591 3.268 4.363 5.683-2.367-1.748-4.649-3.593-6.64-5.774-3.308-3.462-6.614-6.926-9.921-10.389z" fill="#979ba1"/><path d="m161.313 73.404c-7.952 3.755-15.707 7.868-23.053 12.722-.517.342-1.003.73-1.504 1.097-2.72.817-4.623 2.904-6.794 4.523-5.311 3.962-10.212 8.408-14.588 13.405-3.089 3.431-5.965 7.029-8.539 10.865-.319.481-.638.962-.958 1.443-.394.225-.787.45-1.374.786.227-2.301 2.058-3.483 2.821-5.24.637-1.467 2.276-3.155.943-4.428-1.163-1.11-2.557.881-3.884 1.4-1.232.482-1.7 2.103-3.178 2.309 3.065-4.062 6.242-7.945 10.485-10.962 2.375-1.688 4.064-4.318 6.17-6.414 1.368-1.362 2.754-2.765 4.623-3.493.366.714-.504 1.297-.208 2.228 2.196-.571 4.116-1.657 5.868-2.878 9.648-6.725 19.727-12.671 30.521-17.375 1.681-.731 1.667-.763 2.649.012z" fill="#7b7f84"/><path d="m106.836 116.017c2.102-4.207 5.074-7.729 8.539-10.865-.274 1.792-1.942 2.558-2.923 3.812-1.851 2.364-3.319 5.045-5.616 7.053z" fill="#8f9399"/><path d="m365.557 206.784c-.351 1.118-.929 2.023-1.625 2.819-1.355 1.54-3.16 2.658-4.657 4.055-.701.654-1.492 1.236-2.312 1.777-.019.009-.043.024-.062.038-.09.057-.18.114-.27.171-.18.128-.355.256-.535.379-3.61 2.553-7.329 4.927-11.161 7.097-.009.005-.019.009-.024.014-2.411 1.36-4.86 2.643-7.367 3.842-15.837 7.58-32.332 13.255-49.5 16.922-6.609 1.412-13.264 2.62-20.025 3.117 0 .005.36.043.393.265-.118.076-.242.142-.365.194-.867.398-1.805.289-2.733.256-.559-.014-1.118-.005-1.663.161.028.043.052.076.085.104.388.422.981 0 1.402.261-1.232.734-2.577.379-3.885.379-2.648-.488-5.287-.081-7.935.024-4.155.171-8.3-.161-12.445-.218-.772-.009-1.573-.18-2.317.194-1.165-.024-2.373.403-3.472-.322.346-.08.692-.161 1.312-.303-.066-.024-.128-.043-.194-.062-.284-.09-.568-.137-.848-.166-1.331-.128-2.606.242-3.719-.393-.071-.038-.137-.081-.208-.128-1.549-.246-3.037-1.033-4.671-.531-.194.005-.388.024-.583.043-.005 0-.009 0-.009 0-.531.047-1.052.09-1.53-.18-.118-.062-.232-.142-.341-.246-1.502-.502-2.999-1.061-4.628-.573-1.469-.185-2.98-.185-4.344-.881-6.424-1.805-12.999-3.018-19.376-4.993-14.615-4.515-28.902-9.754-42.096-17.4-2.951-1.71-5.851-3.539-8.683-5.51-.483-.336-.966-.668-1.445-1.004-1.374-.971-2.729-1.971-3.96-3.108-1.161-1.061-2.222-2.241-3.089-3.629-.886-1.407-1.397-2.814-.715-4.448.052-.033.099-.062.152-.081.057-.033.114-.062.166-.081 1.137-.46 1.81.616 2.426 1.184 2.345 2.165 4.879 4.088 7.362 6.083l.009.009c.104.081.208.161.313.246 11.18 8.849 23.166 16.315 36.667 21.171.649.232 1.303.412 1.957.587.18.047.355.095.535.142.076.019.147.043.223.062.076.028.147.057.223.085 9.266 3.586 18.75 6.414 28.585 7.902 2.189.332 4.392.99 6.632.763.502-.052 1.009-.152 1.516-.303 6.31.834 12.653 1.388 18.997 1.653 6.888.289 13.809.384 20.707-.294 3.046-.303 6.106-.692 9.181-.535.976.426 2.013.171 3.032.156.128-.005.256-.005.379.005.298.014.592.062.881.161.076.024.265-.256-.099-.081-.128.062-.256-.057-.336-.218-.033-.066-.057-.147-.071-.218.474-.82 1.208-.701 1.957-.564.403.118.801.194 1.199.242 2.118.261 4.202-.327 6.249-.663 9.939-1.639 19.65-4.169 28.964-8.068.071-.028.142-.062.213-.09.071-.019.142-.038.213-.062.133-.033.261-.066.388-.104 6.291-1.748 12.128-4.557 17.836-7.66 10.92-5.936 20.74-13.426 30.087-21.569.749-.649 1.435-2.118 2.672-1.17 1.02.782.769 2.085.385 3.293z" fill="#bec2c7"/><path d="m238.561 248.634c.304-.476.785-.429 1.253-.428 6.731.002 13.461.002 20.192.001.468 0 .95-.052 1.252.428-7.566.556-15.132.559-22.697-.001z" fill="#f4f6fa"/><path d="m363.597 215.52c2.619-3.198 6.242-5.226 9.289-7.935 7.351-6.536 13.617-13.912 18.661-22.353 4.336-7.257 7.546-14.94 9.244-23.247 1.829-8.948 1.44-17.745-1.207-26.509-5.108-16.908-15.383-30.222-28.465-41.672-1.585-1.388-3.533-2.398-4.705-4.248 2.838 1.111 4.981 3.246 7.219 5.157 9.34 7.975 17.475 17.013 23.47 27.814 1.537 2.769 2.776 5.703 4.635 8.372-.688-2.242-1.31-4.507-2.086-6.718-.566-1.614-.505-3.246-.543-4.897-.036-1.539.749-1.829 1.918-1.239.894.451 1.932.996 2.427 1.796 2.234 3.605 4.409 7.262 5.547 11.41-1.079.701-.55 1.706-.429 2.581.889 6.396 1.973 12.773 1.659 19.273-.277 5.739-.429 11.496-2.547 16.959-.115.298-.141.611-.045.924-1.541 4.312-4.279 7.874-7.13 11.365-1.436-.319-1.542-.448-1.219-2.129.537-2.797 1.51-5.471 2.405-8.166.339-1.02.733-2.024.949-3.084-3.489 13.217-12.114 23.152-21.004 32.919-5.577 5.12-11.494 9.792-18.043 13.627z" fill="#b0b3ba"/><path d="m407.639 170.987c-.905-1.746.349-3.306.616-4.885.986-5.821 1.363-11.647 1.284-17.532-.065-4.868-1.094-9.618-1.627-14.429-.094-.853-.244-1.706-.259-2.56-.033-1.938.828-.491 1.347-.331-.04 1.596 1.255 2.712 1.513 4.201 2.094 6.897 2.709 13.961 2.335 21.127-.275 5.271-1.47 10.354-3.226 15.321-.358 1.011-.432.368-.611-.034.14-1.211.28-2.422.439-3.791-1.069.843-1.116 2.074-1.811 2.913z" fill="#e8eaef"/><path d="m381.64 201.892c2.026-4.083 5.556-6.988 8.315-10.495 5.654-7.187 10.176-14.896 12.592-23.763.053-.197.262-.351.499-.654.674 1.018.14 1.847-.1 2.682-1.019 3.549-2.037 7.098-3.056 10.647-.234.815-.76 1.718.619 2.044-2.876 4.642-6.792 8.391-10.68 12.122-2.653 2.544-5.107 5.336-8.189 7.417z" fill="#9a9da4"/><path d="m161.313 73.404c-2.257-.322-3.927 1.203-5.728 2.044-9.571 4.472-18.673 9.776-27.267 15.947-1.514 1.087-3.286 1.833-4.988 2.634-.576.271-1.356.833-1.947.158-.728-.83.055-1.412.571-1.999.205-.233.356-.513.531-.772 11.988-9.468 25.538-16.084 39.651-21.657 13.73-5.422 27.903-9.335 42.435-11.813 10.458-1.784 20.991-3.022 31.617-3.595 10.808-.583 21.6-.593 32.36.241 31.537 2.444 61.788 9.756 89.94 24.623 2.709 1.43 5.302 3.079 7.949 4.626 1.576 2.167 4.148 3.037 6.123 4.691 1.32 1.106 2.778 2.048 4.151 3.093.552.42 1.354.923.903 1.696-.538.923-1.368.287-2.087.035-3.318-1.167-6.011-3.382-8.867-5.311-10.154-6.858-21.049-12.307-32.289-17.111-.513-.219-1.004-.527-1.483.044-8.982-3.359-17.98-6.683-27.328-8.904-10.476-2.489-21.046-4.391-31.795-5.351-9.183-.82-18.368-1.402-27.58-1.216-22.834.461-45.236 3.685-66.953 10.968-4.471 1.499-8.847 3.285-13.267 4.939-1.485-.1-2.527.838-3.659 1.565-.238.361-.586.461-.993.425z" fill="#adb0b7"/><path d="m366.411 89.555c-1.348-.452-2.492-1.189-3.304-2.383 1.371.42 2.556 1.099 3.304 2.383z" fill="#b0b3ba"/><path d="m381.167 130.072c-.005 0-.005.005-.009.005-.066.028-.128.052-.194.071-.658.237-1.326.223-1.999.009-.218-.085-.407-.208-.569-.374-.085-.081-.166-.175-.237-.284 0-.005-.005-.009-.005-.014-.028-.104-.052-.199-.062-.289v-.005c-.152-.881.355-1.066 1.274-.81.185.047.341.227.564.133-.265-.1-.398-.308-.483-.545-.009-.019-.019-.043-.024-.062-.014-.033-.024-.062-.033-.095-2.222-6.163-5.988-11.431-9.664-16.751-9.129-13.212-21.517-22.663-35.317-30.489-11.175-6.334-22.995-11.109-35.321-14.634-9.877-2.828-19.977-4.505-30.177-5.618-5.088-.559-10.185-1.009-15.316-.981-1.232.009-2.392.038-2.985 1.374-.071.071-.142.137-.213.204-.052.047-.109.09-.166.128-.227.152-.478.227-.782.109-.005 0-.014-.005-.024-.005h-.005c-.033-.019-.071-.038-.109-.057-.621-1.45-1.767-1.748-3.255-1.748-7.191.014-14.302.957-21.422 1.805-15.226 1.814-29.821 5.903-43.915 11.91-10.564 4.51-20.532 10.048-29.784 16.87-.744.55-1.416 1.303-2.478 1.222-.223.038-.308-.076-.346-.246-.005-.009-.005-.019-.005-.028-.085-.412.052-1.094-.82-.725-.862.365-1.895.493-2.549-.474-.55-.805-.161-1.497.237-2.174.005-.005.005-.005.005-.009.081-.133.156-.27.227-.403.052-.104.104-.204.152-.308v-.005c.085-.18.161-.36.237-.545.867-.857 1.777-1.644 2.724-2.383.005-.005.005-.005.009-.009 1.473-1.146 3.032-2.174 4.628-3.15 1.469-.9 2.97-1.753 4.463-2.61.99-.568 1.985-1.123 2.989-1.653.019-.009.043-.024.062-.033 8.404-4.534 17.225-8.129 26.311-11.095.332-.109.692-.071 1.037-.085.351-.005.682-.062.962-.365 11.303-3.558 22.914-5.528 34.682-6.651 11.223-1.066 22.479-1.061 33.73-.933 17.755.199 35.312 2.028 52.414 7.12 10.389 3.018 20.385 6.874 29.793 11.962.047.024.095.052.142.076 3.297 1.786 6.523 3.724 9.669 5.832.573.384 1.142.772 1.71 1.17.796.55 1.582 1.113 2.364 1.686 4.965 3.648 9.603 7.693 13.397 12.615 1.644 2.132 3.179 4.292 4.036 6.907.64 1.952 1.9 3.629 2.999 5.358 1.364 2.16 2.705 4.33 3.866 6.609.057.104.109.208.161.313.009.009.014.024.019.033 1.511 3.112 3.321 6.078 4.363 9.408.468 1.466.567 2.788-.958 3.716z" fill="#313336"/><path d="m153.297 80.169c-.052.218-.175.384-.336.521-.275.237-.654.393-.943.611-1.194.895-2.435 1.724-3.686 2.539-.005.005-.005.005-.009.009-2.293 1.502-4.614 2.97-6.727 4.733-.853.564-1.682 1.151-2.492 1.767-2.71 2.042-5.197 4.354-7.499 6.836-.441.478-.881.962-1.312 1.445-4.458 4.979-8.404 10.346-11.493 16.334-3.093 5.993-4.946 12.426-6.969 18.802.635-2.103 1.615-4.055 2.781-5.898 1.217-1.928 2.672-3.705 4.003-5.566.535-.749.976-.772 1.213-.27v.005c.033.062.062.128.081.199.047.156.085.341.104.559-.971 2.454-1.876 4.932-2.719 7.428-.005.005-.005.014-.009.019-.114.336-.227.677-.336 1.014v.005c-.156.464-.308.933-.46 1.402-.047.137-.09.275-.133.412-.005.014-.009.028-.014.043-.289.46-.488.952-.545 1.502-.019.175-.076.298-.085.379.057-.085.038-.28.133-.374.796-.777 1.056-1.033 1.317-.502.057.114.114.27.175.464v.005c.076.232.161.521.261.876-1.705 8.068-1.942 16.216-1.35 24.407-.175.346-.308.692-.407 1.033-.279.971-.275 1.919-.118 2.852.175 1.047.545 2.08.91 3.112.057.152.109.298.161.45.028.076.052.152.081.227.009.024.019.047.024.076.038.109.057.223.057.336 0 .081-.005.166-.019.246-.526 1.208 0 2.335.355 3.435.867 2.7 1.649 5.434 2.814 8.03.317.711.767 1.615-.071 2.137-.014.009-.024.014-.038.019-.024.019-.047.028-.071.043-.649.294-1.255-.37-1.691-.848-2.719-2.98-5.083-6.163-6.263-10.072 2.98 12.094 8.276 22.9 16.988 31.958 3.406 3.544 6.959 6.921 10.806 9.967l.014.014c1.023.815 2.075 1.601 3.146 2.364.294.208.621.431.801.73 0 0 .005 0 .005.005.09.137.142.294.152.474.005.152-.024.322-.099.512-3.88-1.848-7.101-4.662-10.28-7.442-10.986-9.607-19.3-21.062-24.184-34.966-3.378-9.607-4.609-19.47-3.752-29.499.488-5.723 1.947-11.336 3.946-16.851 2.549-7.03 5.969-13.482 10.185-19.579 7.518-10.867 17.277-19.328 28.438-26.249 1.663-1.028 3.193-2.307 5.145-2.809.057.234.057.424.014.589z" fill="#b3b6c1"/><path d="m391.726 170.093c-.441 1.734-.962 3.463-1.573 5.183-1.208 3.406-2.757 6.661-4.297 9.925-6.661 12.914-16.604 22.843-28.324 31.153-.426.303-1.009.393-1.516.583-.066-.194-.09-.365-.071-.512.019-.152.071-.284.152-.403.166-.256.445-.45.706-.654.024-.024.052-.043.076-.066.005 0 .009-.005.014-.009 2.454-1.781 4.789-3.69 7.04-5.69.005-.009.009-.014.014-.014 2.966-2.653 5.775-5.476 8.475-8.423.834-.824 1.62-1.677 2.369-2.558.005-.005.009-.009.014-.019 3.747-4.387 6.533-9.413 8.996-14.638.687-1.454 1.293-2.932 1.838-4.425 2.004-5.505 3.098-11.213 3.861-16.765-.37 2.028-1.113 4.325-2.113 6.538-1.009 2.222-1.871 4.515-3.307 6.514-.621.857-1.146 1.975-2.558 1.412-.009-.005-.024-.009-.033-.014h-.005c-.753-1.421.194-2.591.55-3.851.014-.047.028-.099.043-.147.024-.081.047-.166.076-.251.606-2.065 1.421-4.121 1.004-6.282-.038-.213-.095-.426-.161-.64-.076-.256-.171-.512-.289-.767.668-5.074 1.127-10.138 1.075-15.273-.057-5.794-.857-11.426-2.534-16.96-.284-.938-.843-1.9-.284-2.89.043-.081.099-.166.161-.246.758-1.056.824-2.094.436-3.401-.995-3.368-3.179-6.182-4.226-9.503.081-.185.166-.313.251-.398.431-.445.9.147 1.184.422 1.62 1.573 3.435 2.98 4.572 4.666-.867-1.805-1.682-3.885-2.838-5.808-1.578-2.629-2.804-5.462-4.496-8.025-1.644-2.497-3.506-4.846-5.443-7.125-5.543-6.509-11.919-12.08-18.954-16.922-.208-.142-.445-.265-.687-.384-.64-.308-1.331-.597-1.71-1.17-.147-.218-.251-.478-.284-.801-.014-.147-.019-.303-.005-.478 3.349 1.289 6.097 3.562 8.982 5.581 7.139 4.988 13.501 10.839 18.935 17.665 3.97 5.069 7.343 10.403 9.986 16.05.014.019.024.043.028.066 2.989 6.381 5.045 13.17 5.997 20.432 1.294 9.894 1.323 19.71-1.127 29.322z" fill="#afb2be"/><path d="m216.19 244.625c-.038.047-.095.104-.175.175-.147.128-.46.066-.692.09-10.261-1.81-20.247-4.661-30.087-8.034-14.297-4.898-28.05-10.953-40.698-19.319-.261-.175-.507-.374-.758-.564-.497-.587-1.037-1.118-1.601-1.62-1.947-1.734-4.202-3.084-6.159-4.818-6.893-6.087-12.947-12.786-17.514-20.858-3.761-6.656-5.926-13.8-7.646-21.147-.09-.374-.109-.772-.109-1.156-.005-.114.166-.232.559-.734 1.27 6.002 3.989 10.929 8.612 15.23.028.028.057.052.085.081-.005-.043-.005-.081-.014-.123-.213-2.236-1.402-3.719-1.829-5.443-.54-2.212-1.146-4.42-1.966-6.542-.412-1.066.014-1.582.606-2.198l.024-.024h.005.005c.019 0 .038 0 .057.005.772.024.985.663 1.127 1.222.995 3.856 2.624 7.499 3.761 11.303-.043.133-.076.261-.104.393-.028.104-.047.208-.062.313-.175 1.071.028 2.084.55 3.122 2.98 5.926 6.628 11.384 11.171 16.23 1.194 1.274 2.028 2.762 2.776 4.311-.005.066-.005.133-.005.199-.152 4.567 3.093 7.03 6.201 9.408 9.621 7.338 20.262 12.881 31.423 17.495 10.256 4.24 20.749 7.717 31.498 10.436 3.491.886 7.025 1.592 10.536 2.392.11.024.664-.123.423.175z" fill="#888b93"/><path d="m348.925 80.975c2.119 2.489 5.16 3.743 7.677 5.711 8.294 6.484 15.688 13.804 21.075 22.898 2.929 4.944 5.887 9.934 7.616 15.537-1 .343-1.062-.456-1.208-.833-1.221-3.158-3.951-5.036-6.158-7.353-.084-.088-.392.036-.595.061-2.853-4.866-5.751-9.688-8.397-14.691-4.173-7.89-11.162-13.367-18.383-18.385-12.065-8.386-25.279-14.411-39.292-18.743-.573-.177-1.287-.14-1.649-.79 4.187.428 8.029 2.101 11.915 3.503 9.557 3.447 18.731 7.75 27.399 13.085z" fill="#7f828d"/><path d="m141.441 88.111c3.233-2.953 7.152-4.924 10.686-7.446.444-.316.96-.517 1.151-1.087 10.193-5.828 20.868-10.56 32.085-14.047 1.107-.344 2.187-.933 3.422-.68-5.045 1.93-10.15 3.718-15.123 5.819-9.957 4.207-19.471 9.232-27.967 16.011-2.637 3.139-6.023 5.49-8.806 8.504-3.366 3.646-5.593 7.915-7.825 12.239-.781 1.513-1.503 3.132-3.056 4.099-1.705.196-2.745 1.407-3.875 2.503-.643.624-1.359 1.813-2.287 1.05-.868-.714.067-1.734.516-2.504 2.777-4.763 5.948-9.229 9.512-13.46 3.465-4.113 7.476-7.583 11.567-11.001z" fill="#747782"/><path d="m385.858 185.203c-.372-1.681.891-2.828 1.506-4.116 5.238-10.974 6.207-22.663 5.511-34.507-.579-9.866-3.168-19.349-7.568-28.241-1.986-4.014-4.222-7.913-6.96-11.494-.608-.795-1.368-1.541-1.504-2.623 3.757 3.756 6.487 8.251 9.009 12.856 4.334 7.911 7.47 16.282 8.815 25.237 1.021 6.8.817 13.624-.467 20.366-1.401 7.353-3.872 14.377-7.179 21.1-.279.565-.514 1.161-1.163 1.422z" fill="#ced1de"/><path d="m357.001 215.573c-.329.454-.657.908-.986 1.362-11.416 8.111-24.123 13.638-37.162 18.469-13.258 4.912-26.874 8.519-40.843 10.735-3.18.504-6.398.766-9.599 1.139-.451-.047-.902-.093-1.353-.14 10.419-1.491 20.764-3.212 30.915-5.997 11.7-3.21 23.071-7.29 34.159-12.225 8.591-3.823 16.623-8.565 24.336-13.894.202.162.501.227.533.551z" fill="#9397a5"/><path d="m219.666 245.77c1.894-1.201 3.7.496 5.656.064-.171.207-.237.362-.343.397-.216.072-.453.081-.682.115-1.544-.192-3.088-.384-4.631-.576z" fill="#888b93"/><path d="m226.757 246.731c1.874-1.114 3.694.524 5.554.109.034.332-.22.317-.428.352-.151.026-.303.045-.455.067-1.557-.176-3.114-.352-4.671-.528z" fill="#888b93"/><path d="m162.305 72.979c.942-1.171 2.017-2.033 3.659-1.565-1.22.522-2.439 1.043-3.659 1.565z" fill="#7b7f84"/><path d="m313.76 234.146c-.374.853-1.464.924-2.236 1.203-8.101 2.918-16.363 5.263-24.866 6.675-3.046.502-6.054 1.549-9.228 1.004-.682-.014-1.402-.208-1.961.388h-.005c-.033-.066-.057-.147-.071-.218.474-.82 1.208-.701 1.957-.564.403.118.801.194 1.199.242 11.682-1.573 23.075-4.354 34.166-8.38.867-.317.947-.668.521-1.355-8.494-8.892-17.012-17.765-25.477-26.681-11.734-12.355-23.421-24.757-35.165-37.103-.876-.919-1.54-2.293-3.155-2.222-7.944 8.328-15.898 16.642-23.829 24.975-12.175 12.791-24.331 25.591-36.506 38.377-.696.73-1.464 1.383-2.203 2.07.066.668-1.492 1.35.36 2.018 11.038 3.951 22.346 6.713 33.948 8.295.502-.052 1.009-.152 1.516-.303 6.31.834 12.653 1.388 18.997 1.653 6.888.289 13.809.384 20.707-.294 3.046-.303 6.106-.692 9.181-.535.976.426 2.013.171 3.032.156.275-.043.55-.09.824-.133-.152.043-.298.09-.445.137-.924.294-1.833.649-2.842.384-4.657.322-9.328.554-13.975 1.014-2.8.275-5.618.166-8.39.171-6.301.005-12.606-.346-18.897-1.056-2.842-.322-5.699-.559-8.527-1.033-3.345.535-6.533-.512-9.745-1.071-8.295-1.445-16.382-3.738-24.293-6.604-.772-.279-2.018-.36-2.359-1.151-.152-.346-.128-.834.194-1.54.095-.18.204-.346.322-.502.024-.028.043-.057.066-.085.786-.99 1.933-1.615 2.8-2.53 9.901-10.455 19.887-20.835 29.604-31.461 2.866-3.141 5.893-6.125 8.821-9.209 6.339-6.675 12.63-13.397 18.992-20.058.72-.758 1.402-1.597 2.44-1.966.043-.019.09-.033.137-.047.109-.024.213-.038.317-.043 1.194-.114 2.004.649 2.748 1.454 6.646 7.253 13.634 14.188 20.205 21.512 2.842 3.165 5.851 6.177 8.793 9.238 7.258 7.551 14.411 15.202 21.607 22.801 3.501 3.695 7.248 7.168 10.507 11.085.062.066.114.133.166.199.062.071.123.142.18.213.019.369-.033.653-.132.88z" fill="#fefefe"/><path d="m385.483 180.477c-1.08 2.795-2.302 5.524-3.776 8.134-2.629 4.671-5.652 9.072-9.119 13.165-4.107 4.643-8.636 8.83-13.639 12.492-.63.464-1.298.872-1.947 1.303l-.099-.1c-.033-.033-.066-.066-.099-.104-.109-.114-.223-.227-.332-.346 2.454-1.833 4.936-3.667 7.021-5.917 1.393-1.497 2.473-3.264 1.345-5.623-2.719 2.288-5.363 4.576-8.068 6.779-11.82 9.621-24.392 17.983-38.832 23.222-1.165.422-2.245 1.189-3.586 1.019-.085-.166-.137-.336-.166-.507-.057-.322-.028-.649.043-.976.005-.005.005-.009.005-.014.014-.062.028-.123.047-.185.123-.161.27-.289.445-.365.028-.014.062-.028.095-.038.085-.033.18-.052.279-.057 1.037.147 2.023.038 2.984-.431 14.544-7.106 28.68-14.894 40.85-25.719 8.527-7.584 15.027-16.713 19.352-27.33.829-2.037 1.53-4.131 2.714-6.012.081-.038.161-.066.237-.085.038-.009.071-.019.104-.019.308-.062.573.019.81.194.137.104.265.242.388.403-.346 1.265-.687 2.534-1.028 3.799.005.019.009.043.009.062.298 1.44-.654 2.511-1.128 3.709-1.175 3.008-2.615 5.884-4.24 8.309 3.42-1.705 5.756-4.747 7.277-8.489.147-.365.346-.715.602-1.019.351-.412.739-.981 1.35-.568.142.095.218.218.256.36.073.296-.041.661-.154.954z" fill="#7d8086"/><path d="m185.544 234.061c-.005.147-.066.313-.189.507-2.501-.412-4.742-1.582-7.063-2.506-11.038-4.377-20.934-10.702-30.286-17.921-.782-.602-1.848-.929-2.288-1.952.104-.123.223-.213.355-.275.114-.062.242-.104.374-.128.071-.014.142-.024.218-.028.052.014.104.024.156.043 2.714.677 4.586 2.767 6.798 4.249 8.972 6.016 18.461 11.109 28.13 15.884.848.422 1.777.559 2.653.876v.005c.066.019.133.043.199.071.019.005.033.014.052.019.332.37.929.63.891 1.156z" fill="#85888e"/><path d="m146.859 212.137c-.156.009-.317.014-.474.024h-.005c-.223.009-.445.019-.663.028-3.453-2.132-6.159-5.206-9.441-7.551-.052-.038-.104-.076-.156-.114l-.005-.005c-5.746-6.646-11.445-13.307-14.989-21.493-.431-1.009-.478-1.776.322-2.534.085.009.161.028.232.052.568.194.744.753.985 1.255 5.401 11.19 12.98 20.622 22.758 28.291.592.469 1.236.924 1.398 1.71.024.105.033.218.038.337z" fill="#696d71"/><path d="m222.386 243.034c0 .677-.384.687-.938.625-12.445-1.398-24.506-4.287-36.094-9.091-.114-.218-.232-.431-.346-.649-.152-.28-.298-.564-.45-.848-.095-.081-.147-.161-.156-.256v-.005c-.009-.024-.009-.047-.005-.071.014-.128.038-.194.071-.194.066.052.133.095.194.123.009.009.014.014.024.014h.005c.72.341.924-.862 1.573-.744.052.009.099.024.142.043.024.009.047.019.066.033.038.019.071.043.099.066.147.128.232.308.327.478.066.668-1.492 1.35.36 2.018 11.038 3.951 22.346 6.713 33.948 8.295.394.058.787.111 1.18.163z" fill="#5a5c60"/><path d="m314.574 233.891c-.014.204-.09.407-.223.611-8.039 3.591-16.472 5.893-25.098 7.509-3.534.663-7.111 1.061-10.668 1.596-.55.085-1.127.341-1.156-.578.374-.047.749-.095 1.118-.152 11.682-1.573 23.075-4.354 34.166-8.38.867-.317.947-.668.521-1.355.076-.133.18-.227.308-.284.062-.033.128-.052.204-.062.066.005.123.019.185.033.052.019.104.038.152.066.052.028.104.062.152.109.028.019.057.047.081.076.206.266.287.536.258.811z" fill="#5b5c61"/><path d="m276.377 243.844c-1.412-.45-2.776 1.17-4.202.095.824-.133 1.644-.261 2.463-.388.275-.043.55-.09.824-.133h.005c.227.038.469.047.682.123.1.033.153.199.228.303z" fill="#5b5c61"/><path d="m273.559 151.542c.171-.137.341-.275.512-.412-.047-.152-.066-.294-.057-.426-.251.114-.474.27-.663.488-.085.114-.161.232-.218.351-.052.104-.09.208-.118.313-.175.568-.071 1.165.133 1.753.478 1.369 1.17 2.629 1.914 3.866.137-.081.313-.156.535-.227-1.001-1.788-2.398-3.432-2.038-5.706zm0 0c.171-.137.341-.275.512-.412-.047-.152-.066-.294-.057-.426-.251.114-.474.27-.663.488-.085.114-.161.232-.218.351-.052.104-.09.208-.118.313-.175.568-.071 1.165.133 1.753.478 1.369 1.17 2.629 1.914 3.866.137-.081.313-.156.535-.227-1.001-1.788-2.398-3.432-2.038-5.706zm109.498 14.264c1.639-7.419 1.767-14.889 1.042-22.436-.441-4.576-1.871-8.887-2.932-13.298-.014-.057-.028-.114-.043-.171-.796-.062-1.592-.123-2.388-.189-.194-.104-.388-.18-.583-.227-.971-.251-1.942.095-2.88.275-5.183 1-10.342 2.108-15.51 3.16-13.824 2.819-27.647 5.614-41.456 8.48-14.591 3.037-29.229 5.827-43.763 9.134-.071.014-.142.033-.213.047-.109.033-.218.076-.317.123-.251.114-.474.27-.663.488-.085.114-.161.232-.218.351-.052.104-.09.208-.118.313-.175.568-.071 1.165.133 1.753.478 1.369 1.17 2.629 1.914 3.866.009.019.019.033.028.052.047.081.09.156.133.237 4.628 8.063 8.736 16.41 13.066 24.634 6.206 11.796 12.407 23.601 18.547 35.435 2.553 4.913 5.017 9.882 7.892 14.624.024.043.047.09.076.133.801.947 1.686.687 2.648.261 5.907-2.634 11.55-5.78 17.159-8.968 12.047-6.845 23.45-14.558 32.451-25.316 6.381-7.622 10.953-16.249 14.141-25.634.047-.057.095-.109.142-.166 1.511-1.791 1.99-3.856 1.814-6.087-.026-.287-.059-.58-.102-.874zm-1.819 6.978c-.076.019-.156.047-.237.085-1.184 1.881-1.885 3.975-2.714 6.012-4.325 10.616-10.825 19.745-19.352 27.33-12.17 10.825-26.306 18.613-40.85 25.719-.962.469-1.947.578-2.984.431-.099.005-.194.024-.279.057.09-1.123-.583-1.994-1.061-2.904-10.199-19.466-20.38-38.946-30.669-58.364-2.463-4.652-4.614-9.475-7.494-13.904-1-1.786-2.397-3.43-2.037-5.704.171-.137.341-.275.512-.412 1.767.128 3.382-.602 5.064-.943 33.09-6.779 66.176-13.596 99.261-20.404.161.166.351.289.569.374.673.213 1.341.227 1.999-.009-.559.99 0 1.952.284 2.89 1.677 5.533 2.478 11.166 2.534 16.96.052 5.135-.407 10.199-1.075 15.273.118.256.213.512.289.767-.59 2.25-1.173 4.5-1.76 6.746zm-107.679-21.242c.171-.137.341-.275.512-.412-.047-.152-.066-.294-.057-.426-.251.114-.474.27-.663.488-.085.114-.161.232-.218.351-.052.104-.09.208-.118.313-.175.568-.071 1.165.133 1.753.478 1.369 1.17 2.629 1.914 3.866.137-.081.313-.156.535-.227-1.001-1.788-2.398-3.432-2.038-5.706z" fill="#fefefe"/><path d="m379.239 125.392c-7.172-14.112-16.713-26.297-29.542-35.724-28.917-21.252-61.846-29.978-97.21-31.115-1.644-.057-2.369.393-2.16 2.056-.038.147-.071.289-.095.436-.218 1.199-.005 2.335.313 3.453.294 1.056.677 2.094.872 3.165 0 .009.005.024.005.033.947 5.031 1.947 10.057 2.985 15.074 2.823 13.724 5.637 27.448 8.295 41.205.82 4.254 1.312 4.529 5.661 4.586 18.831.261 37.657-.284 56.493.308h.005c.009.005.019.005.028 0 .014.005.028.005.043 0 .625.019 1.265.043 1.89.066 8.489.298 16.993.327 25.496.256 4.761-.043 9.527-.109 14.283-.18 2.454-.038 4.936 0 7.404-.175.014 0 .028 0 .043-.005.72-.052 1.44-.123 2.16-.218h.014c1.08-.147 2.16-.355 3.226-.644.09-.024.175-.047.265-.071.753-1-.109-1.786-.474-2.506zm-16.311 2.88c-14.037-.057-28.073.047-42.12-.256-17.831-.384-35.681-.161-53.522-.076-2.269.014-3.221-.682-3.634-2.871-1.284-6.864-2.729-13.696-4.103-20.546-1.805-9.001-3.501-18.021-5.443-26.993-.744-3.43-.971-6.983-2.26-10.294-.483-2.103-.966-4.216-1.45-6.32.071-.066.142-.133.213-.204.592-1.336 1.753-1.364 2.985-1.374 5.131-.028 10.228.422 15.316.981 10.199 1.113 20.299 2.79 30.177 5.618 12.327 3.525 24.146 8.3 35.321 14.634 13.8 7.826 26.188 17.277 35.317 30.489 3.676 5.32 7.442 10.588 9.664 16.751.009.033.019.062.033.095-5.498.134-10.994.385-16.494.366z" fill="#fefefe"/><path d="m248.437 67.445c-.014.081-.033.161-.047.242-.038.175-.071.346-.104.521-2.61 13.028-5.225 26.055-7.888 39.069-.009.047-.019.095-.028.142-.024.109-.047.218-.066.327-1.194 5.656-2.189 11.355-3.416 17.007-.706 3.236-1.274 3.795-4.567 3.799-18.523.019-37.051-.327-55.564.123-.782.019-1.563.038-2.345.052-.014-.005-.024-.005-.033 0-8.143.161-16.292.152-24.435.218-3.738.033-7.475.081-11.213.166-.185-.019-.365-.033-.55-.043-2.028-.137-4.069.1-6.092-.166-.057-.014-.118-.024-.175-.033-3.411-.692-6.874-.109-10.304-.351-1.037-.104-1.592-.483-1.767-1.061-.133-.417-.071-.938.142-1.525.024-.076.052-.152.085-.227.393-.962.838-1.904 1.317-2.823.839-1.62 1.767-3.193 2.7-4.766.133-.227.27-.46.407-.692.441-.744.914-1.459 1.203-2.279.265-.654.597-1.265 1.109-1.762.365-.322.701-.668 1.019-1.033.753-.857 1.383-1.8 1.975-2.771.005 0 .005 0 .005-.005.27-.441.531-.886.791-1.331 3.411-4.662 7.295-8.897 11.564-12.786.384-.261.749-.54 1.104-.834 0 0 0-.005.005-.005 1.364-1.113 2.591-2.407 4.074-3.378.133-.085.265-.166.398-.246l.327-.057-.005.005c-1.682 1.838-3.657 3.345-5.652 4.818-3.984 4.069-7.944 8.167-11.464 12.663-.839 2.037-2.028 3.823-3.761 5.216-.313.483-.621.962-.933 1.445-.919 2.937-3.013 5.254-4.264 8.02-.516 1.142-1.151 2.231-1.672 3.368-.322.711-.436 1.416.696 1.502 3.278.047 6.58-.403 9.844.137.374.005.753.052 1.118.223 2.193.014 4.391.033 6.585.052 10.332-.033 20.669.194 30.987-.142 21.128-.682 42.252-.199 63.376-.303 2.212-.014 2.861-.971 3.207-2.804 1.099-5.775 2.25-11.535 3.397-17.301.057-.294.265-.554.403-.834 1.104-5.604 2.208-11.204 3.302-16.808 1.431-7.3 2.847-14.6 4.283-21.896.071-.365.284-.706.431-1.056.384-2.056.64-4.15 1.478-6.092-.033-.019-.071-.038-.109-.057-.621-1.45-1.767-1.748-3.255-1.748-7.191.014-14.302.957-21.422 1.805-15.226 1.814-29.821 5.903-43.915 11.91-10.564 4.51-20.532 10.048-29.784 16.87-.744.55-1.416 1.303-2.478 1.222-.223.038-.308-.076-.346-.246 3.956-2.653 7.831-5.443 11.886-7.94 20.915-12.89 43.73-20.181 68.071-22.938 6.334-.72 12.672-1.175 19.035-1.478 2.132-.099 2.653.701 2.335 2.558.005.014.005.033.009.047.388 2.211-.768 4.177-1.014 6.29z" fill="#fefefe"/><path d="m378.737 129.712c-.114.024-.227.047-.341.071-33.085 6.808-66.171 13.625-99.261 20.404-1.682.341-3.297 1.071-5.064.943-.047-.152-.066-.294-.057-.426.019-.507.384-.886.706-1.236 2.212-2.378 4.695-4.306 7.878-5.064-7.281 1.497-14.804 1.544-22.152 2.961-.284.052-.568.118-.839.208 0 0 0 0-.005 0-.261.076-.512.175-.758.294-.128.062-.256.133-.379.208-1.663.384-3.103-.313-4.491-1.037-.829-.436-1.066-1.023-.521-1.62.038-.038.081-.081.123-.118.085-.081.185-.156.298-.237.298-.062.602-.118.9-.171 6.855-1.303 13.795-2.056 20.712-2.98 2.634-.355 5.292-.559 7.897-1.08.72-.147 1.44-.317 2.151-.521.123-.033.251-.071.374-.109.365-.071.73-.118 1.099-.152.677-.047 1.355-.047 2.037-.043h.218c.099-.009.204-.024.303-.038 7.717-.9 15.406-1.99 23.104-3.046 11.474-1.578 22.976-2.956 34.45-4.538 3.998-.554 8.016-.995 12.019-1.544.36-.047.725-.095 1.085-.152.142-.014.284-.038.426-.057.161-.024.327-.047.488-.071.052-.005.104-.014.156-.019 4.235-.545 8.466-1.118 12.696-1.701.005 0 .009 0 .014-.005.014 0 .028 0 .043-.005.725-.099 1.454-.242 2.174-.218.64.014 1.27.161 1.871.578v.005h.005c.214.17.427.346.641.516z" fill="#1d1e21"/><path d="m381.115 128.301c-.749 1.284-2.336-.474-3.018.895h-.005c-5.623.654-11.242 1.303-16.87 1.957-.199-.185-.426-.308-.696-.374-.464.071-.929.085-1.388.062 0 0 0 0-.005 0-.303-.014-.611-.043-.914-.081-.564-.071-1.128-.171-1.686-.261-.076-.014-.147-.028-.223-.038-9.423-1.473-18.907-.952-28.367-.9-1.17.009-2.345.009-3.515-.005-18.532-.194-37.065-.052-55.597-.052-.943 0-1.895.043-2.838-.047-.919-.085-1.663-.303-2.25-.692-.834-.55-1.355-1.431-1.625-2.733-.54-2.563-1.18-5.107-1.72-7.67-.18-.82-.341-1.639-.488-2.463-.024-.123-.047-.242-.071-.365-.005-.028-.009-.052-.014-.081-.294-1.568-.587-3.141-.881-4.709-1.724-9.266-3.468-18.528-5.888-27.652-.725-2.748-2.07-5.296-2.658-8.087-.024-.114-.047-.227-.071-.346-.019-.104-.038-.208-.052-.313-.009-.052-.019-.109-.028-.166-.005-.033-.009-.062-.014-.095-.218-1.596-.369-3.198-.635-4.789-.043-.27-.09-.535-.142-.801-.133-.663-.189-1.336-.137-2.009 0-.033 0-.066.005-.099.071-.772.161-1.724 1.023-1.871.019-.005.038-.005.057-.009.033-.005.066-.009.095-.005.014-.005.033-.005.047-.005.947-.019.332 1.109.696 1.582.261.336.043.952.606 1.156 1.289 3.311 1.516 6.864 2.26 10.294 1.942 8.972 3.638 17.992 5.443 26.993 1.374 6.85 2.819 13.681 4.103 20.546.412 2.189 1.364 2.885 3.634 2.871 17.841-.085 35.691-.308 53.522.076 14.046.303 28.083.199 42.12.256 5.5.019 10.995-.232 16.495-.365.095-.005.194-.009.289-.009.193.967 1.14-.43 1.401.404z" fill="#c8cbd0"/><path d="m149.242 89.232c-.412.597-.772 1.123-1.132 1.644-.014.019-.028.043-.043.062l-.005.005c-2.08 1.379-3.851 3.112-5.652 4.818-3.984 4.069-7.944 8.167-11.464 12.663-1.274 1.724-2.52 3.468-3.761 5.216-.313.483-.621.962-.933 1.445-1.578 2.624-3.259 5.187-4.865 7.798-.152.246-.303.497-.455.744-.464.758-.782 1.521-.947 2.307-.109.497-.156 1.004-.142 1.525.005.336.038.677.099 1.028.052.294.227.839.066.824-.033-.005-.066-.005-.099-.005-.085-.009-.166-.009-.242-.009-1.222.019-1.63.782-1.933 1.63-.156.445-.289.91-.493 1.307-.156.308-.355.573-.644.753-.081.047-.161.076-.242.09-.137.019-.275-.009-.412-.09 1.09-3.482 1.985-7.035 3.719-10.285.052-.223.104-.445.166-.663.99-3.638 3.188-6.718 4.837-10.053.014-.024.024-.052.043-.076.194-.36.516-.72 1.042-.687 1.985-1.848 3.269-4.254 4.24-6.656 2.44-6.045 6.902-10.379 11.583-14.544 1.227-1.09 2.118-2.672 3.79-3.24v-.005c.109-.033.223-.066.336-.095.478 1.094-1.578 1.852-.554 2.828 1.085 1.042 2.312-.18 3.491-.279.146-.014.298-0 .606-0z" fill="#1e1f22"/><path d="m251.848 67.236c-.147.161-.242.791-.431.426-.005-.005-.005-.009-.009-.014-.407-.824-.55-1.776-.91-3.146-.019-.085-.043-.175-.066-.265-.028.095-.057.189-.085.279-.995 3.525.673 6.471.403 9.456-.133.152-.242.322-.332.502 0 0-.005 0-.005.005-.028.057-.057.118-.085.18-.1.227-.185.488-.327.635-.109.118-.251.166-.469.076-.005-.005-.009-.005-.014-.009-.09-.043-.194-.104-.313-.204-.019-.014-.043-.028-.062-.047-.076-.142-.137-.284-.189-.431-.189-.493-.284-1.014-.36-1.535.526-2.089.365-4.221.474-6.154-.095.284-.223.583-.341.876-.076.189-.242.346-.441.341-.09 0-.194-.038-.294-.118-.294-.242-.171-.554-.047-.848.384-2.056.64-4.15 1.478-6.092h.005c0-.014.009-.028.014-.043.294-.166.592-.332.886-.497.024.104.047.204.071.308.482 2.103.965 4.216 1.449 6.319z" fill="#7b7c81"/><path d="m226.612 151.665c-.024-.043-.052-.085-.085-.123-.128-.166-.294-.327-.512-.474-1.037-.616-2.212-.834-3.363-1.085-11.952-2.601-23.942-5.055-35.928-7.494-17.249-3.51-34.473-7.125-51.727-10.602-2.037-.412-4.069-.876-6.106-1.298h-.005c-2.373-.502-4.761-.947-7.177-1.199-.365-.038-.725-.071-1.09-.099-.194.043-.379.09-.554.142-1.113.313-1.867.777-2.331 1.492-.237.365-.398.796-.493 1.307-.099.535-.123 1.161-.081 1.89.014.261.038.54.066.829-.265 1.246-.531 2.492-.791 3.742-1.492 7.272-1.44 14.591-.64 21.929-.346 1.094-.294 2.127-.076 3.136.218 1.052.611 2.075.91 3.112.076.251.142.497.204.749 0 .009.005.024.005.033l.005.005v.005c.038.099.071.199.109.298 1.497 4.174 2.999 8.352 4.496 12.53.057.123.114.246.171.365 3.108 6.675 6.978 12.857 11.734 18.499 3.908 4.638 8.513 8.518 13.094 12.431.137.114.275.232.412.351.843.55 1.715 1.066 2.534 1.653 10.233 7.348 21.218 13.402 32.564 18.812.786.374 1.596 1.109 2.601.469.014-.062.024-.123.043-.185.014-.057.028-.114.043-.171.014-.009.028-.019.043-.033h.005c.658-.46.981-1.161 1.35-1.838 6.187-11.28 11.966-22.768 17.992-34.128 6.898-12.999 13.601-26.107 20.555-39.078.033-.066.066-.128.104-.194.019-.033.033-.066.052-.1.521-1.146 1.18-2.222 1.729-3.349.394-.808.602-1.628.138-2.329zm-2.378 5.581c-.227.308-.502.592-.677.928-10.271 19.603-20.55 39.206-30.788 58.833-2.719 5.211-5.846 10.214-8.106 15.662-.062-.028-.128-.071-.194-.123-.033 0-.057.066-.071.194-.005.024-.005.047.005.071-.876-.317-1.805-.455-2.653-.876-9.669-4.775-19.158-9.868-28.13-15.884-2.212-1.483-4.084-3.572-6.798-4.249-.161-.786-.805-1.241-1.398-1.71-9.778-7.67-17.358-17.102-22.758-28.291-.242-.502-.417-1.061-.985-1.255.028-.133.062-.261.104-.393-1.137-3.804-2.767-7.447-3.761-11.303-.142-.559-.355-1.199-1.127-1.222-.005-.028-.014-.052-.024-.076-.028-.076-.052-.152-.081-.227-.317-2.137-.64-4.278-.952-6.414.099-.341.232-.687.407-1.033-.592-8.191-.355-16.339 1.35-24.407-.099-.355-.185-.644-.261-.876v-.005c.317-1.08.644-2.16.933-3.25.336-1.255 1.085-1.848 2.397-1.639 6.092 1.227 12.184 2.435 18.272 3.681 19.636 4.027 39.287 8.011 58.904 12.123 9.465 1.985 18.987 3.681 28.358 6.087.639 2.333-1.568 3.678-1.966 5.654z" fill="#fefefe"/><path d="m125.748 111.224c-2.029 3.826-4.058 7.653-6.087 11.479-.534-1.399-.68-.012-.802.161-2.744 3.888-5.662 7.676-7.188 12.931-.415-2.054-.025-4.152 1.068-7.309 2.258-6.523 4.675-12.958 8.416-18.837 5.237-8.231 11.757-15.256 19.401-21.272.225-.177.587-.181.886-.265-2.703 2.62-5.48 5.167-8.092 7.874-5.095 5.279-9.281 11.247-12.925 17.601-.215.376-.589.754-.316 1.41 1.496-.658 2.083-2.305 3.422-3.064.689-.393 1.205-1.324 2.217-.709z" fill="#9497a3"/><path d="m138.559 128.386c-.1.298-.227.521-.379.682-.644.701-1.701.36-2.553.431-1.975.171-4.055-.327-5.884.73-.109.062-.213.128-.317.204-.057.033-.109.076-.161.114-.128.019-.251.033-.374.043h-.005c-1.701.133-3.307-.478-4.965-.677-1.085-.128-2.137-.625-3.255-.213-1.312-.208-2.061.384-2.397 1.639-.289 1.09-.616 2.17-.933 3.25v.005c-.038.118-.076.242-.109.36-.677-.971-.677-.971-1.715 1.094-.275-1.118-.137-2.118.431-3.06.246-.066.422-.18.545-.322.336-.379.327-.957.46-1.402v-.005c.104-.36.204-.706.336-1.014.005-.005.005-.014.009-.019.365-.834.947-1.35 2.373-.928.123.038.256.085.398.137-.052-.047-.104-.09-.156-.128-.696-.521-1.388-.483-1.137-1.35.673-2.34 1.412-4.614 2.923-6.59.815-1.066 1.606-2.155 2.392-3.25.72-1.009 1.44-2.023 2.165-3.032-.919 2.937-3.013 5.254-4.264 8.02-.516 1.142-1.151 2.231-1.672 3.368-.322.711-.436 1.416.696 1.502 2.8.351 5.614.057 8.418.166.474.019.952-.043 1.426-.028.374.005.753.052 1.118.223 2.195.012 4.393.031 6.586.05z" fill="#8d9095"/><path d="m116.843 167.658v.005c-.014-.005-.028-.009-.038-.019-1.919-.834-.72-2.904-1.592-4.103-.933-1.284-.431-2.108.583-2.918.014.095.028.189.043.284.313 2.137.635 4.278.952 6.414.014.099.033.199.047.298.001.016.001.025.005.039z" fill="#888b93"/><path d="m372.587 201.774c1.947-2.822 3.942-5.612 5.83-8.472 2.846-4.31 5.255-8.847 6.698-13.933-2.223 5.014-5.405 9.116-10.585 11.543 2.94-4.317 4.824-9.101 6.983-13.75 2.699-.882 3.17-3.529 4.197-5.604 1.748-3.534 3.212-7.22 3.83-11.206 1.157 2.141.302 4.259-.002 6.3-1.671 11.205-6.047 21.324-12.742 30.427-1.236 1.681-2.324 3.565-4.209 4.695z" fill="#999ca5"/><path d="m383.881 168.762c-.701 1.45-.332 3.231-1.341 4.6-.156-.047-.313-.099-.464-.152-.294-.09-.587-.185-.876-.279.014-.047.024-.099.038-.147.587-2.245 1.17-4.496 1.758-6.746.019-.076.043-.156.062-.232 1.079.763 1.439 1.686.823 2.956z" fill="#999ca5"/><path d="m314.082 232.896c-.009.033-.019.066-.033.099-.114.024-.227.043-.341.062-.156.028-.317.057-.474.085-8.494-8.892-17.012-17.765-25.477-26.681-11.734-12.355-23.421-24.757-35.165-37.103-.876-.919-1.54-2.293-3.155-2.222-.071-.095-.142-.185-.208-.28-.692-.938-1.104-1.89-.298-3.108.436-.658.317-1.516.303-2.298-.052-3.908.156-7.821-.123-11.73-.066-.9.005-1.72.767-2.326.095-.047.189-.09.275-.118.009-.005.019-.009.028-.009 1.137-.388 1.606.658 2.118 1.355 2.326 3.188 4.714 6.329 7.044 9.513.346.469.692.943 1.037 1.412 7.584 10.337 15.358 20.532 23.023 30.812.047.062.095.128.142.189 7.381 10.128 14.97 20.1 22.384 30.205 2.426 3.307 4.936 6.552 7.239 9.944.449.669 1.193 1.247.914 2.199z" fill="#303437"/><path d="m249.867 162.627c.019.763.341 1.592-.715 2.245-.881.55.715 1.142.531 1.895-.033.118-.104.242-.246.37-7.944 8.328-15.898 16.642-23.829 24.975-12.175 12.791-24.331 25.591-36.506 38.377-.696.73-1.464 1.383-2.203 2.07-.128-.128-.256-.261-.393-.393-.024-.028-.052-.057-.081-.085-.009-.033-.014-.066-.019-.1-.194-1.127.658-1.814 1.222-2.582 8.091-11.085 16.339-22.057 24.53-33.071 1.885-2.53 3.78-5.055 5.538-7.674.047-.062.095-.123.142-.185 6.609-8.759 13.208-17.528 19.759-26.33.062-.085.128-.175.194-.265 3.207-4.301 6.4-8.612 9.574-12.938.663-.905 1.109-2.601 2.814-1.668.062.038.123.071.189.114-.242.55-.867.891-.763 1.644.641 4.52.153 9.068.262 13.601z" fill="#18191b"/><path d="m313.76 229.513c-10.199-19.466-20.38-38.946-30.669-58.364-2.463-4.652-4.614-9.475-7.494-13.904-.223.071-.398.147-.535.227-.91.559-.057 1.379.275 1.985.46.839.919 1.677 1.374 2.516-1.175-2.089-2.421-4.131-3.828-6.078-.938-1.293-1.729-2.463-1.478-3.984.024-.137.057-.28.099-.422.019-.076.043-.152.071-.232-3.236-1.819-6.959-2.113-10.408-3.288-.507-.171-1.028-.355-1.559-.398 0 0 0 0-.005 0-.379-.033-.767.009-1.161.18-1.592-.038-2.994-.815-4.496-1.199-.791-.199-.81-.616-.18-1.094-.062-.057-.128-.114-.19-.161-.128-.099-.261-.18-.388-.232-.455-.199-.905-.123-1.345.142-.152.09-.303.204-.45.336-.014.024-.024.047-.033.071v.005c-.038.071-.066.137-.085.208v.005c-.317.947.478 1.568.933 2.217 2.677 3.866 5.41 7.693 8.172 11.497 5.538 7.627 11.19 15.169 16.727 22.796 2.042 2.804 4.486 5.339 5.979 8.532 3.951 5.367 7.902 10.735 11.853 16.107 6.329 8.612 12.658 17.234 18.987 25.847h.005c.038.057.076.109.118.166h.147l.033.024.085.062c.161-.166.327-.327.488-.493.009-.057.014-.114.019-.171.09-1.121-.583-1.993-1.061-2.903zm-26.354-47.198c-1.175-2.397-2.364-4.78-3.643-7.12 1.34 2.307 2.482 4.719 3.643 7.12zm-3.984-7.702c-.673-.976-1.094-2.084-1.653-3.122-1.004-1.852-1.966-3.728-2.942-5.595 1.549 2.894 3.079 5.803 4.595 8.717z" fill="#bbbec5"/><path d="m248.541 145.753c-.009-.033-.019-.071-.028-.109-.038-.047-.076-.09-.114-.128-.175-.175-.355-.303-.55-.379-.322-.133-.677-.137-1.056-.028-.076.024-.161.052-.242.085-.066.062-.133.118-.204.171-.052.043-.104.085-.156.123-1.53 1.156-3.397 1.393-5.206 1.772-.095.019-.185.038-.279.057-.152.047-.303.095-.455.137-2.317.706-4.657 1.341-6.997 1.975-1.871.507-3.851.739-5.514 1.876-.066.095-.109.185-.123.27-.009.024-.014.043-.014.066-.085.82 1.829 1.151.644 2.558-1.833 2.189-3.345 4.581-4.728 7.054.317-.597.64-1.194.962-1.786.341-.63 1.208-1.459.213-2.023-.123-.071-.275-.137-.46-.199-.227.308-.502.592-.677.928-10.271 19.603-20.55 39.206-30.788 58.833-2.719 5.211-5.846 10.214-8.106 15.662-.005.014-.014.033-.019.047 1.109 1.241 1.109-.649 1.781-.635.014-.024.033-.043.047-.066 6.67-9.02 13.364-18.026 19.991-27.083 3.889-5.315 8.106-10.398 11.649-15.97-.071-.237-.043-.474.109-.658 3.525-4.33 6.661-8.944 9.986-13.421 3.146-4.23 6.272-8.475 9.385-12.734.062-.09.128-.18.199-.275 3.169-4.349 6.32-8.717 9.437-13.108.626-.885 1.635-1.695 1.313-3.012zm-29.604 24.127c-.005.009-.014.024-.019.033-.45.805-.905 1.611-1.317 2.435.393-.839.824-1.658 1.289-2.459.009-.024.024-.043.038-.062.047-.085.095-.171.147-.256.63-1.165 1.255-2.335 1.881-3.51-.658 1.27-1.317 2.534-2.004 3.79-.005.01-.01.02-.015.029z" fill="#bbbec5"/><path d="m283.99 144.038c-3.629 1.53-6.94 3.454-9.446 6.495-.161.194-.322.393-.474.597-.171.137-.341.275-.512.412-.18.142-.36.246-.545.313-.426.161-.857.095-1.293-.303-.071-.019-.147-.043-.218-.062-4.216-1.208-8.437-2.416-12.658-3.624-.133-.038-.27-.076-.403-.114.18-1.341 1.326-.886 2.061-1.019 7.765-1.407 15.638-1.871 23.488-2.695z" fill="#010101"/><path d="m283.621 174.717-.081.071-.009.009-.071.057c-2.264-3.212-3.856-6.803-5.718-10.237-2.312-4.268-5.069-8.257-7.926-12.004.393-.782 1.127-.478 1.587-.701.137-.062.246-.171.317-.36.469-.005.943-.009 1.412-.009h.426c-.36 2.274 1.037 3.918 2.037 5.704-.204.185-.317.355-.374.516-.227.649.502 1.165.739 1.686 2.369 5.182 5.519 9.971 7.661 15.268z" fill="#707479"/><path d="m246.234 141.101c-2.587-3.562-5.415-6.945-8.068-10.465-.488-.649-.929-1.431-1.781-1.554-.095-.014-.194-.019-.303-.014-.104 0-.208.014-.327.038-.985.327-2.004.204-3.008.199h.398c2.733 0 3.894-.767 4.704-3.141v-.005c.062-.185.123-.384.185-.592.109-.379.19-.767.261-1.156.005-.019.009-.038.014-.062.062-.365.118-.734.18-1.099.815-4.932 2.108-9.783 2.482-14.785v-.005c.005-.028.009-.052.009-.081-.024-.109-.047-.218-.085-.317-.005-.019-.009-.033-.019-.052 0 0 0 0 0-.005 0-.009-.005-.019-.009-.028-.099-.28-.246-.521-.469-.701-.128-.118-.284-.208-.469-.275-.137.279-.346.54-.403.834-1.146 5.765-2.298 11.526-3.397 17.301-.346 1.833-.995 2.79-3.207 2.804-21.124.104-42.247-.379-63.376.303-10.318.336-20.655.109-30.987.142-1.98.933-4.079.27-6.121.436-.175.014-.351.028-.526.047-1.066.1-2.047.294-2.738 1.289.081.109.161.204.251.275.516.46 1.203.445 1.866.545 4.046.616 8.115 1.033 12.17 1.573 19.594 2.591 39.178 5.254 58.781 7.764 3.814.488 7.584 1.421 11.469 1.184.194-.085.36-.199.488-.341.038-.038.071-.076.099-.118.071-.099.133-.213.171-.341.009-.024.019-.047.024-.071.005-.009.005-.019.009-.028-.038-.18-.104-.303-.194-.388 1.364.223 2.752.455 4.145.677 4.344.696 8.712 1.203 13.075 1.729s8.726 1.099 13.103 1.511c.839.076 1.876.171 2.35-.706.48-.886-.24-1.62-.747-2.321zm-76.091-11.602c-.677.052-1.35.114-2.023.189-8.532.971-17.035 2.245-24.591.73 2.075.085 5.102-.862 8.224-.824 6.13.071 12.26 0 18.39-.095zm23.004-.208c1.615.009 3.231.019 4.842.024-4.643 0-9.285 0-13.928-.005 3.027-.029 6.059-.038 9.086-.019zm13.72 9.815c1.492.175 3.108.412 4.799.677-1.801-.179-3.516-.321-4.799-.677z" fill="#cdd0d7"/><path d="m249.105 73.547c.095.55.123 1.085.1 1.611-.052 1.165-.37 2.288-.815 3.435-2.705 7.006-3.975 14.378-5.453 21.702-.512 2.53-.919 5.097-1.772 7.556-.066.085-.137.147-.218.19-.014.009-.033.019-.052.024-.009.009-.014.009-.024.009-.118.047-.256.047-.403.005-.057-.109-.109-.223-.166-.332-.123-.246-.251-.493-.374-.744 1.104-5.604 2.208-11.204 3.302-16.808 1.431-7.3 2.847-14.6 4.283-21.896.071-.365.284-.706.431-1.056.147.175.265.791.445.445 0 0 .005-.005.005-.009.393-.805.73-1.696.782-2.658.033.488.085.981.142 1.469-.005.005-.005.009 0 .014.104.933.227 1.867.28 2.795.005.009.005.019.005.024.089 1.41.018 2.817-.498 4.224z" fill="#c8cbd1"/><path d="m131.974 128.334c-3.657-.085-7.329.322-10.962-.36 3.278.047 6.58-.403 9.844.137.375.057.744.133 1.118.223z" fill="#cdd0d7"/><path d="m148.062 90.942c-1.682 1.838-3.657 3.345-5.652 4.818.275-.388.559-.767.853-1.137 0 0 0-.005.005-.005 1.123-1.407 2.411-2.61 4.074-3.378.232-.108.474-.208.72-.298z" fill="#313336"/><path d="m130.946 108.423c-.839 2.037-2.028 3.823-3.761 5.216.194-.441.403-.872.64-1.289.55-1 1.213-1.919 1.975-2.771.005 0 .005 0 .005-.005.36-.398.739-.782 1.141-1.151z" fill="#8d9095"/><path d="m361.227 130.717c.001.145 0 .291-.003.436-10.751 1.446-21.502 2.892-32.253 4.336-12.544 1.685-25.087 3.37-37.632 5.045-.697.093-1.407.089-2.111.131-.404-.674-.127-1.152.565-1.118 1.566.079 3.001-.703 4.176-.57-4.22.435-8.72 1.529-13.316 2.053-7.418.845-14.799 2.004-22.238 2.679-1.099.1-2.151.515-3.272.437-.849-.059-1.881.15-2.335-.758-.45-.901.286-1.607.79-2.31 2.477-3.458 5.245-6.692 7.789-10.099.48-.643.869-1.301 1.14-2.049.196-.228.441-.351.74-.375 1.457.702 3 .775 4.588.772 14.496-.024 28.993.061 43.488-.039 10.879-.075 21.723.182 32.514 1.724 3.365.481 6.756-.049 10.118-.338 2.432-.21 4.836-.375 7.252.043z" fill="#ced1d7"/><path d="m262.653 129.269c.998.821-.04 1.203-.4 1.669-2.927 3.791-5.883 7.56-8.816 11.347-.182.235-.247.56-.573 1.331 14.416-1.158 28.39-3.618 42.525-4.533-1.519.211-3.035.444-4.558.624-.7.083-1.482-.056-1.604.958-1.085.462-2.178-.146-3.265.026-8.023 1.414-16.148 2.071-24.197 3.288-3.477.526-6.97.919-10.465 1.285-1.41-.378-1.386-1.513-1.387-2.638-.005-4.007 0-8.013-.003-12.02-.005 3.994.005 7.989-.007 11.983-.003.936.109 1.921-.849 2.547-5.122.076-10.159-.765-15.203-1.46-5.918-.815-11.873-1.35-17.769-2.324-.625-.103-1.263-.153-1.673-.734-3.293-.518-6.587-1.035-9.88-1.553.016-.152.032-.304.047-.456l42.003 5.139c.105-.188.209-.376.314-.564-3.445-4.773-6.981-9.478-10.84-13.942.058-.636.489-.686.988-.631.886.391 1.223 1.318 1.891 1.924 1.902 2.312 3.679 4.723 5.58 7.041.892 1.069 1.7 2.214 3.022 3.097-.086-11.025 1.19-21.949.696-32.924-.109-3.39.165-6.776.013-10.164.043-5.173.645-10.326.569-15.504-.008-.556.127-1.091.516-1.526 1.706-.145 1.667 1.185 1.671 2.203.023 6.259.916 12.489.599 18.754-.023 7.779-.32 15.559.322 23.341.362 4.387.06 8.808.11 13.214.009.835-.154 1.706.413 2.772 2.002-1.993 3.394-4.271 5.15-6.226 1.091-1.445 2.176-2.899 3.378-4.258.456-.516.802-1.221 1.682-1.086z" fill="#bbbec5"/><path d="m355.057 133.678c-24.008 3.028-47.842 7.309-71.881 10.114-.032-.228-.063-.456-.095-.684 23.932-3.387 47.863-6.774 71.795-10.16.06.243.12.486.181.73z" fill="#55585e"/><path d="m251.322 144.998c7.594-.971 15.19-1.928 22.781-2.92 3.948-.516 7.862-1.311 11.861-1.388-1.428 1.167-3.217.911-4.85 1.137-9.109 1.263-18.231 2.431-27.349 3.632-.86-.148-1.663-.018-2.385.497-.294-.302-.323-.621-.058-.958z" fill="#f0f0f3"/><path d="m361.227 130.717c-4.566-.22-9.008 1.025-13.566 1.154-2.141.061-4.281.033-6.315-.302-12.267-2.02-24.623-1.855-36.98-1.839-12.21.015-24.42.012-36.629.071-1.765.009-3.435-.131-4.969-1.059-.294-.123-.601-.291-.702-.583-1.393-4.044-2.439-8.157-2.389-12.479.198-.239.427-.274.688-.105.665 2.717 1.6 5.401 1.933 8.157.506 4.189 1.273 5.105 5.536 5.108 26.756.018 53.511.044 80.267.032 4.426-.002 8.692 1.299 13.093 1.448.039.001.102.112.105.175.003.071-.046.147-.072.222z" fill="#62656a"/><path d="m260.364 115.574-.208-.042-.212.006c-1.063-.692-1.078-1.864-1.297-2.92-1.004-4.857-2.015-9.713-3.143-14.543-.664-2.843-1.542-5.615-2.618-8.329-1.621-4.085-2.8-8.285-3.152-12.689.044-1.097.338-2.138.696-3.164.101.047.207.075.318.082 2.429 7.135 4.627 14.33 5.933 21.775 1.162 6.619 2.834 13.145 3.683 19.824z" fill="#1d1e20"/><path d="m240.883 107.97c2.044-10.193 3.331-20.565 7.182-30.332.518-1.315.932-2.667 1.038-4.091.578.499.251 1.207.415 1.801.643.96.316 2.029.347 3.058-.118.766-.319 1.508-.649 2.212-.082 2.128-.299 4.237-1.147 6.217-2.521 5.887-4.029 12.065-5.322 18.309-.237 1.142-.384 2.343-1.21 3.28-.453.189-.74.136-.654-.454z" fill="#1d1f22"/><path d="m249.314 78.564c.068-1.072.136-2.144.204-3.216.304-.485.608-.97.912-1.455-.031 1.114-.062 2.229-.093 3.343-.549.282.389 1.71-1.023 1.328z" fill="#bbbec5"/><path d="m245.717 146.653c-1.606.36-3.089 1.194-4.78 1.203-.223-.156-.455-.289-.687-.403-1.705-.829-3.638-.625-5.448-.876-5.675-.786-11.403-1.156-17.064-2.089-.128-.019-.256-.043-.384-.071 3.87 1.194 7.016 3.525 9.441 7.044-.005.009-.009.014-.014.024-.005.014-.014.024-.024.038-.043.066-.09.114-.147.142-.114.071-.251.043-.412-.076-9.37-2.407-18.892-4.103-28.358-6.087-19.617-4.112-39.268-8.096-58.904-12.123-6.087-1.246-12.18-2.454-18.272-3.681.351-.156.696-.256 1.042-.308 1.966-.322 3.88.701 5.841.578.535-.033 1.085.123 1.625.189.189.024.379.047.568.071 10.394 1.298 20.792 2.563 31.181 3.908 10.507 1.364 21.005 2.833 31.513 4.226 7.158.947 14.321 1.843 21.484 2.757.128-.033.251-.057.379-.081.161-.028.317-.047.478-.062 1.829-.166 3.596.507 5.382.72 8.3.971 16.585 2.061 24.857 3.245.289.038.583.047.848.128.18.052.346.137.483.294.043.047.081.099.118.161.344.769-.196 1.006-.746 1.129z" fill="#393c40"/><path d="m230.108 152.504c-4.301 5.401-7.665 11.46-10.986 17.547-.081-.033-.147-.076-.204-.137-.009 0-.019-.009-.028-.024-.076-.076-.128-.175-.161-.294 1.758-3.454 3.544-6.893 5.249-10.37.232-.474.947-.976.611-1.587-.066-.128-.18-.256-.355-.393.398-1.975 2.606-3.321 1.966-5.656.109-.014.218-.028.327-.047.066-.005.133-.019.199-.028h.005c.019-.009.033-.019.052-.028.308-.171.587-.152.834.09.024.024.052.052.076.081.577.722 1.557-.017 2.415.846z" fill="#6f7378"/><path d="m251.322 144.998c.019.319.038.638.057.958 8.5 11.808 16.996 23.618 25.503 35.42 1.929 2.677 3.906 5.319 5.842 7.992.313.432 1.133.795.362 1.507-10.389-13.941-20.775-27.884-31.174-41.817-.451-.604-.647-1.469-1.54-1.675-1.138-.629-1.427.287-1.943.984-9.683 13.076-19.387 26.136-29.093 39.194-.369.496-.812.937-1.221 1.403-.71-.745.119-1.075.433-1.509 10.011-13.806 20.178-27.501 29.901-41.514-.276-.557.269-.735.491-1.062.623-.911.52-1.953.52-2.971.005-4.868.002-9.735.002-14.708 1.226.317.814 1.093.82 1.6.056 4.489.057 8.978.078 13.467.005 1.019-.12 2.089.962 2.731z" fill="#f7f8fa"/><path d="m239.369 174.672c2.168-2.961 4.785-5.504 7.429-8.027-1.993 3.104-4.564 5.698-7.18 8.252-.216.073-.3-.002-.249-.225z" fill="#4e5156"/><path d="m239.618 174.898c-1.223 1.911-2.911 3.371-4.651 4.788 1.122-1.977 2.773-3.485 4.403-5.013.081.075.164.151.248.225z" fill="#4e5156"/><path d="m233.801 181.482c-1.099 1.174-2.198 2.348-3.296 3.522-.146-.121-.291-.242-.437-.363 1.106-1.19 2.212-2.379 3.318-3.569.139.137.277.273.415.41z" fill="#4e5156"/><path d="m229.063 186.734c-1.122 1.206-2.244 2.413-3.366 3.619.55-1.753 1.76-2.906 3.366-3.619z" fill="#4e5156"/><path d="m292.908 191.92c4.956 9.089 9.911 18.179 12.977 28.149-5.764-8.624-7.937-18.982-13.306-27.797-.265-.467-.015-.453.329-.352z" fill="#3f4347"/><path d="m283.618 174.716c2.02 2.623 3.021 5.781 4.489 8.697-1.796-2.718-3.432-5.522-4.646-8.558-.001.001.157-.139.157-.139z" fill="#707479"/><path d="m292.908 191.92c-.11.117-.219.235-.329.352-1.31-2.362-2.619-4.723-3.929-7.084.198-.109.396-.217.594-.326 1.221 2.353 2.442 4.705 3.664 7.058z" fill="#707479"/><path d="m227.692 151.654c-.321-.046-.642-.092-.963-.138-3.308-2.872-6.421-6.041-10.91-7.102-.799-.189-1.586-.431-2.342-.876 3.488.35 6.981.664 10.464 1.058 4.969.562 9.936 1.148 14.893 1.809.839.112 2.467-.551 2.103 1.45-4.415 1.266-8.83 2.532-13.245 3.799z" fill="#0a0a0a"/><path d="m206.805 193.254c-3.069 5.95-6.077 11.921-8.149 18.322-.845 2.609-2.191 5.005-4.357 7.727 2.87-9.871 7.727-18.053 12.121-26.446.176-.071.361-.135.483.074.048.082-.013.206-.098.323z" fill="#3d4044"/><path d="m248.94 144.879c-.163.354-.327.708-.491 1.062-.601-.422-1.251-.611-1.982-.416-10.849-1.468-21.698-2.936-32.546-4.403.163-.168.325-.336.488-.504 7.156.908 14.31 1.83 21.468 2.72 4.351.54 8.708 1.029 13.063 1.541z" fill="#f0f1f4"/><path d="m206.805 193.254c-.128-.132-.256-.265-.385-.397 2.484-4.699 4.967-9.398 7.451-14.097.189.098.377.196.566.294-2.545 4.733-5.088 9.467-7.632 14.2z" fill="#717379"/><path d="m218.728 169.597c.131.151.263.302.394.452-.789 1.526-1.579 3.051-2.368 4.577.113-1.925 1.096-3.455 1.974-5.029z" fill="#696b71"/><path d="m240.883 107.97c.147.158.294.315.441.473.698.635.495 1.443.359 2.194-.95 5.225-1.939 10.442-3.13 15.618-.223.969-.46 2.009-1.517 2.511-.327.158-.654.317-.982.475-.896.688-1.945.532-2.962.532-15.392-.008-30.786.105-46.176-.073-10.523-.121-20.928.984-31.36 2.076-4.193.439-8.432-.161-12.612-.838-.684-.111-1.373-.186-2.085-.455 3.319-.986 6.725-1.515 10.18-1.572 26.915-.443 53.831.051 80.747-.081 4.807-.024 4.975-.136 5.861-4.984.96-5.254 1.884-10.515 2.823-15.773.14-.024.277-.059.413-.103z" fill="#626468"/><path d="m249.314 78.564c.766-.116.406-1.098 1.023-1.329.107 5.438 2.66 10.181 4.274 15.197 2.429 7.545 3.641 15.383 5.332 23.106.716 4.449 1.336 8.919 2.824 13.203-.038.176-.076.352-.115.527-1.434 1.719-2.868 3.439-4.302 5.158-2.471 1.145-3.811.398-4.284-2.603-.736-4.671-1.258-9.377-2.042-14.037-.891-5.298-.757-10.645-1.146-15.966-.176-6.44-.358-12.879-.523-19.319-.021-.816-.048-1.592-.937-1.98-.119.228-.242.23-.369.007-.015-.669-.284-1.371.265-1.964z" fill="#eff1f5"/><path d="m243.761 137.351c-1.9-2.09-3.627-4.315-5.215-6.649-.281-.354-.316-.786-.019-1.075 1.855-1.807 1.911-4.204 2.306-6.534.976-5.751 2.111-11.468 4.437-16.872.997-2.317 1.84-4.693 2.519-7.127.174-.625.139-1.494 1.152-1.518-.005 3.468-.01 6.935-.015 10.403-.371 4.143-.225 8.311-.67 12.453-.53 4.93-.686 9.899-1.371 14.809-.329 2.351-1.042 2.669-3.124 2.11z" fill="#e4e7ec"/><path d="m248.94 97.576c-2.48 8.2-6.282 16.008-7.32 24.636-.112.931-.235 1.863-.302 2.798-.163 2.274-1.264 4.08-2.772 5.692-.843-.38-1.068-1.243-1.511-1.935 1.77-4.946 2.247-10.182 3.409-15.264.381-1.666.591-3.372.879-5.059 1.715-8.002 3.47-15.987 6.708-23.563.577-1.35.691-2.897 1.019-4.353.123.003.247.001.369-.007.283 5.698-.263 11.372-.479 17.055z" fill="#f6f8fa"/><path d="m250.879 101.821c.667.643.478 1.484.433 2.239-.373 6.267 1.59 12.263 2.112 18.427.251 2.956.87 5.879 1.208 8.83.332 2.897.717 3.281 3.72 3.111-1.779 2.377-3.549 4.762-5.347 7.125-.269.353-.609.852-1.134.657-.495-.184-.511-.741-.523-1.221-.004-.157-.005-.315-.003-.473.198-12.903-.849-25.79-.466-38.695z" fill="#ced1d7"/><path d="m243.761 137.351c1.5.167 2.297-.29 2.423-2.007.361-4.896.87-9.782 1.364-14.667.428-4.236.916-8.465 1.377-12.698.384 10.941-.725 21.861-.463 32.801.012.511.267 1.209-.355 1.494-.643.294-1.034-.348-1.3-.754-.946-1.444-2.399-2.514-3.046-4.169z" fill="#cdd0d7"/></svg>